<?xml version="1.0" encoding="UTF-8"?>
<svg width="24px" height="24px" viewBox="0 0 24 24" version="1.1" xmlns="http://www.w3.org/2000/svg" xmlns:xlink="http://www.w3.org/1999/xlink">
    <title>Pin / Active-For-Sale-For-Lease</title>
    <g id="Maps" stroke="none" stroke-width="1" fill="none" fill-rule="evenodd">
        <g id="Map---Pins" transform="translate(-445.000000, -365.000000)">
            <g id="Group" transform="translate(445.000000, 365.000000)">
                <path d="M12,0 C18.627417,0 24,5.372583 24,12 C24,18.627417 18.627417,24 12,24 C5.372583,24 0,18.627417 0,12 C0,5.372583 5.372583,0 12,0 Z M19.7581767,5.70642375 L5.6859677,19.7786327 C9.61397109,22.9966267 15.4191089,22.772412 19.0855324,19.1059885 C22.7519559,15.439565 22.9761707,9.63442714 19.7581767,5.70642375 Z M18.436184,4.43373097 C14.5081736,1.21533224 8.70271755,1.43941807 5.03614716,5.10598847 C1.4414703,8.70066532 1.15560213,14.3511723 4.17854266,18.2728307 L4.36388966,18.5060253 L18.436184,4.43373097 Z" id="Shape" fill="#FFFFFF"></path>
                <path d="M19.0855324,19.1059885 C15.4191089,22.772412 9.61397109,22.9966267 5.6859677,19.7786327 L19.7581767,5.70642375 C22.9761707,9.63442714 22.7519559,15.439565 19.0855324,19.1059885 Z" id="Path" fill="#FFBB2F"></path>
                <path d="M5.03614716,5.10598847 C8.70271755,1.43941807 14.5081736,1.21533224 18.436184,4.43373097 L4.36388966,18.5060253 C1.14549093,14.5780149 1.36957676,8.77255886 5.03614716,5.10598847 Z" id="Path" fill="#0070C1"></path>
            </g>
        </g>
    </g>
</svg>