<?xml version="1.0" encoding="UTF-8"?>
<svg width="24px" height="24px" viewBox="0 0 24 24" version="1.1" xmlns="http://www.w3.org/2000/svg" xmlns:xlink="http://www.w3.org/1999/xlink">
    <title>Pin / Active-For Sale</title>
    <g id="Maps" stroke="none" stroke-width="1" fill="none" fill-rule="evenodd">
        <g id="Map---Pins" transform="translate(-445.000000, -257.000000)">
            <g id="Group" transform="translate(445.000000, 257.000000)">
                <path d="M12,2 C17.5228475,2 22,6.4771525 22,12 C22,17.5228475 17.5228475,22 12,22 C6.4771525,22 2,17.5228475 2,12 C2,6.4771525 6.4771525,2 12,2 Z" id="Color" fill="#0070C1"></path>
                <path d="M24,12 C24,18.627417 18.627417,24 12,24 C5.372583,24 -3.55271368e-15,18.627417 -3.55271368e-15,12 C-3.55271368e-15,5.372583 5.372583,0 12,0 C18.627417,0 24,5.372583 24,12 Z M22,12 C22,6.4771525 17.5228475,2 12,2 C6.4771525,2 2,6.4771525 2,12 C2,17.5228475 6.4771525,22 12,22 C17.5228475,22 22,17.5228475 22,12 Z" id="Outline" fill="#FFFFFF"></path>
            </g>
        </g>
    </g>
</svg>