<?xml version="1.0" encoding="UTF-8"?>
<svg width="24px" height="24px" viewBox="0 0 24 24" version="1.1" xmlns="http://www.w3.org/2000/svg" xmlns:xlink="http://www.w3.org/1999/xlink">
    <title>Pin / Pending-For-Sale</title>
    <g id="Maps" stroke="none" stroke-width="1" fill="none" fill-rule="evenodd">
        <g id="Map---Pins" transform="translate(-445.000000, -473.000000)">
            <g id="Group" transform="translate(445.000000, 473.000000)">
                <path d="M12,0 C18.627417,0 24,5.372583 24,12 C24,18.627417 18.627417,24 12,24 C5.372583,24 0,18.627417 0,12 C0,5.372583 5.372583,0 12,0 Z M12,2 C6.4771525,2 2,6.4771525 2,12 C2,17.5228475 6.4771525,22 12,22 C17.5228475,22 22,17.5228475 22,12 C22,6.4771525 17.5228475,2 12,2 Z" id="Outer-Outline" fill="#FFFFFF" fill-rule="nonzero" transform="translate(12.000000, 12.000000) rotate(-270.000000) translate(-12.000000, -12.000000) "></path>
                <path d="M12,2 C17.5228475,2 22,6.4771525 22,12 C22,17.5228475 17.5228475,22 12,22 C6.4771525,22 2,17.5228475 2,12 C2,6.4771525 6.4771525,2 12,2 Z M12,6 C8.6862915,6 6,8.6862915 6,12 C6,15.3137085 8.6862915,18 12,18 C15.3137085,18 18,15.3137085 18,12 C18,8.6862915 15.3137085,6 12,6 Z" id="Combined-Shape" fill="#000000"></path>
                <path d="M12,6 C15.3137085,6 18,8.6862915 18,12 C18,15.3137085 15.3137085,18 12,18 C8.6862915,18 6,15.3137085 6,12 C6,8.6862915 8.6862915,6 12,6 Z M12,7.5 C9.51471863,7.5 7.5,9.51471863 7.5,12 C7.5,14.4852814 9.51471863,16.5 12,16.5 C14.4852814,16.5 16.5,14.4852814 16.5,12 C16.5,9.51471863 14.4852814,7.5 12,7.5 Z" id="Inner-Outline" fill="#FFFFFF"></path>
                <circle id="Fill" fill="#0070C1" cx="12" cy="12" r="4.5"></circle>
            </g>
        </g>
    </g>
</svg>