<?xml version="1.0" encoding="UTF-8"?>
<svg width="24px" height="24px" viewBox="0 0 24 24" version="1.1" xmlns="http://www.w3.org/2000/svg" xmlns:xlink="http://www.w3.org/1999/xlink">
    <title>Pin / Pending-For-Sale-Lease </title>
    <g id="Maps" stroke="none" stroke-width="1" fill="none" fill-rule="evenodd">
        <g id="Map---Pins" transform="translate(-445.000000, -581.000000)">
            <g id="Group" transform="translate(445.000000, 581.000000)">
                <path d="M24,12 C24,18.627417 18.627417,24 12,24 C5.372583,24 -3.55271368e-15,18.627417 -3.55271368e-15,12 C-3.55271368e-15,5.372583 5.372583,0 12,0 C18.627417,0 24,5.372583 24,12 Z M22,12 C22,6.4771525 17.5228475,2 12,2 C6.4771525,2 2,6.4771525 2,12 C2,17.5228475 6.4771525,22 12,22 C17.5228475,22 22,17.5228475 22,12 Z" id="Outer-Outline" fill="#FFFFFF"></path>
                <path d="M12,2 C17.5228475,2 22,6.4771525 22,12 C22,17.5228475 17.5228475,22 12,22 C6.4771525,22 2,17.5228475 2,12 C2,6.4771525 6.4771525,2 12,2 Z M12,6 C8.6862915,6 6,8.6862915 6,12 C6,15.3137085 8.6862915,18 12,18 C15.3137085,18 18,15.3137085 18,12 C18,8.6862915 15.3137085,6 12,6 Z" id="Outer-Circle" fill="#000000"></path>
                <path d="M12,6 C15.3137085,6 18,8.6862915 18,12 C18,15.3137085 15.3137085,18 12,18 C8.6862915,18 6,15.3137085 6,12 C6,8.6862915 8.6862915,6 12,6 Z M15.6249685,9.4372143 L9.34925378,15.712929 C11.1065961,16.964687 13.5615968,16.8023643 15.1380003,15.2259608 C16.660045,13.703916 16.8638504,11.3628223 15.7494164,9.62143238 L15.6249685,9.4372143 Z M8.77403923,8.86199974 C7.25170741,10.3843316 7.04811226,12.7260213 8.16325376,14.4675133 L8.2877794,14.6517404 L14.5637799,8.37573992 C12.8063694,7.12321233 10.35074,7.28529894 8.77403923,8.86199974 Z" id="Inner-Outline" fill="#FFFFFF"></path>
                <path d="M8.77403923,8.86199974 C10.35074,7.28529894 12.8063694,7.12321233 14.5637799,8.37573992 L8.2877794,14.6517404 C7.03525181,12.8943299 7.19733842,10.4387006 8.77403923,8.86199974 Z" id="Blue" fill="#0070C1"></path>
                <path d="M15.6249685,9.4372143 C16.8767265,11.1945566 16.7144038,13.6495573 15.1380003,15.2259608 C13.5615968,16.8023643 11.1065961,16.964687 9.34925378,15.712929 L15.6249685,9.4372143 Z" id="Yellow" fill="#FFBB2F"></path>
            </g>
        </g>
    </g>
</svg>