<?xml version="1.0" encoding="UTF-8"?>
<svg width="72px" height="45px" viewBox="0 0 72 45" version="1.1" xmlns="http://www.w3.org/2000/svg" xmlns:xlink="http://www.w3.org/1999/xlink">
    <title>DownPaymentResource</title>
    <g id="Symbols" stroke="none" stroke-width="1" fill="none" fill-rule="evenodd">
        <g id="Additional-Resource/Elements/Logos/Downpayment-Resource-Copy" transform="translate(-7.000000, -16.000000)" fill-rule="nonzero">
            <g id="DownPaymentResource" transform="translate(7.000000, 16.000000)">
                <path d="M20.3586,27.7622 L15.1051,23.79 C13.6151,22.6678 12.1258,21.5555 10.6808,20.4134 C10.472802,20.2545808 10.338364,20.0179786 10.3084,19.758 C10.2786,13.273 10.2686,6.793 10.2784,0.318 C10.277678,0.211000495 10.2894239,0.104281158 10.3134,0 L13.4714,2.3834 C15.5669,3.9774 17.6574,5.5763 19.7677,7.1553 C20.148185,7.39247684 20.373388,7.81448956 20.3586,8.2626 L20.3586,27.7626 L20.3586,27.7622 Z" id="Path" fill="#8CC640"></path>
                <path d="M18.67,27.6927 L3.3766,27.6927 L3.3766,15.9294 L0.1887,15.9294 L0.1341,15.79 L9.2557,10.15 L9.2557,19.9668 C9.24179693,20.340567 9.43197758,20.6923974 9.7523,20.8855 C12.5561,22.9975 15.3566333,25.1161 18.1539,27.2413 C18.283,27.36 18.427,27.4941 18.67,27.6927 Z" id="Path" fill="#114063"></path>
                <path d="M53.5779,38.4182 L52.0879,38.4182 L52.0879,37.2811 C52.0879,36.6157 52.0879,35.9454 52.0479,35.2949 C52.021658,34.8816241 51.6911581,34.5529054 51.2777464,34.528897 C50.8643347,34.5048887 50.4980051,34.79314 50.4241,35.2006 C50.3724884,35.5506498 50.3509098,35.9044725 50.3596,36.2582 L50.3596,38.4382 L48.8696,38.4382 L48.8696,35.5432 C48.9308444,35.1129232 48.6822638,34.6985803 48.2738,34.5501 C48.0030099,34.4615926 47.7058443,34.5156488 47.4835696,34.6938476 C47.2612949,34.8720464 47.1439038,35.1503426 47.1714,35.4339 L47.1714,38.4132 L45.6814,38.4132 L45.6814,33.3037 L47.1714,33.3037 L47.2161,33.8897 C47.5883057,33.4507496 48.1307251,33.1922813 48.7061,33.1797 C49.2899229,33.1631662 49.8391601,33.4558595 50.151,33.9497 C50.5468697,33.4929087 51.1115763,33.2168732 51.7152,33.1851 C52.8374,33.1851 53.4928,33.6816 53.5623,34.784 C53.6276,35.98 53.5779,37.1868 53.5779,38.4182 Z" id="Path" fill="#114063"></path>
                <path d="M0,38.3983 L0,31.68 C1.3705,31.7495 2.7559,31.4715 4.0866,31.9581 C5.51624382,32.5126293 6.38393698,33.9701289 6.18998132,35.4912355 C5.99602567,37.0123422 4.79035242,38.2054678 3.2673,38.3835 C2.2,38.4778 1.1172,38.3983 0,38.3983 Z M1.5145,37.0626 C2.01083901,37.0881138 2.50816099,37.0881138 3.0045,37.0626 C3.92096201,36.9740075 4.62434409,36.2106358 4.6378,35.29 C4.79269748,34.3506809 4.21790939,33.444713 3.3021,33.1847 C2.7156107,33.0906018 2.12327467,33.0375064 1.5294,33.0258 L1.5145,37.0626 Z" id="Shape" fill="#114063"></path>
                <path d="M13.02,33.2739 L14.3656,33.2739 C14.4501,33.2739 14.5593,33.4428 14.5941,33.552 C14.7232,33.984 14.8324,34.4259 14.9516,34.8629 C15.0626167,35.319328 15.2103994,35.7660201 15.3935,36.1986 C15.473,35.9404 15.5574,35.7021 15.6368,35.4286 L16.039,34.1326 C16.3121,33.2288 16.3121,33.2338 17.2456,33.2338 C17.3453761,33.215672 17.4482667,33.2379293 17.5316299,33.2956741 C17.6149932,33.3534188 17.671998,33.4419192 17.6901,33.5417 L17.6925,33.5566 C17.9458,34.4553 18.2387,35.3442 18.5565,36.3472 L19.3659,33.3033 L20.8559,33.3033 C20.3246,35.0313 19.7933,36.7444 19.2619,38.4675 L17.9206,38.4675 L16.9274,35.3739 C16.6097,36.367 16.3117,37.2608 16.0386,38.1646 C15.9641,38.4178 15.8599,38.5122 15.6017,38.4923 C15.3435,38.4724 14.9517,38.4923 14.6086,38.4923 C14.0822,36.7548 13.5559,35.0417 13.02,33.2739 Z" id="Path" fill="#114063"></path>
                <path d="M30.0414,36.4668 L30.0414,38.4132 L28.5514,38.4132 L28.5514,31.7694 C29.709272,31.7100001 30.869428,31.7100001 32.0273,31.7694 C33.1584755,31.9106422 33.9698815,32.9292847 33.8546,34.0634 C33.8886504,35.2203485 33.0204197,36.2058179 31.8684,36.3178 C31.2624,36.3979333 30.6534,36.4476 30.0414,36.4668 Z M30.0761,33.0902 L30.0761,35.0764 L31.3821,35.0764 C31.930574,35.0764 32.3752,34.631774 32.3752,34.0833 C32.3925752,33.8376557 32.3116552,33.5951703 32.1502419,33.4091896 C31.9888286,33.223209 31.7601448,33.1089683 31.5145,33.0916 L31.4913,33.0902 C31.0199743,33.0625334 30.5474335,33.0624666 30.0761,33.09 L30.0761,33.0902 Z" id="Shape" fill="#114063"></path>
                <path d="M9.8317,33.19 C11.2938177,33.107657 12.5458518,34.2261826 12.6282,35.6883 C12.6314,35.7460333 12.6327667,35.8037667 12.6323,35.8615 C12.6327775,36.5753638 12.3496199,37.2601719 11.8451327,37.7652406 C11.3406454,38.2703092 10.6561638,38.5542553 9.9423,38.5546 C9.90863333,38.5546 9.87493333,38.554 9.8412,38.5528 C8.88235273,38.5940642 7.97432714,38.120655 7.45916767,37.310901 C6.94400821,36.501147 6.89997986,35.4780691 7.34366767,34.6270509 C7.78735549,33.7760327 8.65135273,33.2263642 9.6102,33.1851 C9.68713333,33.1817 9.76413333,33.1817 9.8412,33.1851 L9.8317,33.19 Z M8.5109,35.861 C8.4950352,36.2201741 8.62251086,36.5709381 8.8652804,36.8361186 C9.10804995,37.1012991 9.4462243,37.2591709 9.8054,37.275 L9.8417,37.2761 C10.5683322,37.2830368 11.1630194,36.6996318 11.17,35.973 C11.17,35.9406 11.1691,35.9082333 11.1673,35.8759 C11.2003989,35.1307336 10.6231654,34.4998197 9.878,34.4667 C9.8493,34.4655 9.8207,34.4651 9.792,34.4657 C9.07626725,34.4718043 8.50099886,35.0569672 8.5071,35.7727 C8.5074,35.8021 8.5086,35.8316 8.5109,35.861 Z" id="Shape" fill="#114063"></path>
                <path d="M39.0439,38.4331 L37.6883,38.4331 L37.6337,37.9812 C37.1279982,38.4179113 36.4576243,38.6135905 35.7964,38.5175 C34.9574691,38.5014166 34.2903963,37.8083324 34.3064,36.9694 L34.307,36.9484 C34.2465565,36.127991 34.8624193,35.4138265 35.6828,35.353 C35.7058,35.3512667 35.7288333,35.3501 35.7519,35.3495 C36.3704442,35.3146992 36.9904558,35.3146992 37.609,35.3495 C37.6485153,35.1707617 37.6089994,34.9836651 37.5005817,34.8361711 C37.3921641,34.6886771 37.2253861,34.5951264 37.043,34.5795 C36.3937501,34.5573501 35.7437565,34.5740466 35.0965,34.6295 L34.7638,33.6364 C35.8077082,33.1255591 37.0178223,33.0751497 38.1006,33.4974 C38.6667724,33.7426117 39.0334644,34.3004076 39.0341,34.9174 C39.0687,36.07 39.0439,37.2265 39.0439,38.4331 Z M36.68,36.1589 C36.4640065,36.2013648 36.2539228,36.269725 36.0543,36.3625 C35.8856651,36.4713454 35.7837982,36.6583386 35.7837982,36.85905 C35.7837982,37.0597614 35.8856651,37.2467546 36.0543,37.3556 C36.5663246,37.6015707 37.1799826,37.4686251 37.5443,37.0328 C37.8323,36.5959 37.7131,36.3028 37.2066,36.1986 C37.0676,36.1937 36.9236,36.1887 36.68,36.1589 Z" id="Shape" fill="#114063"></path>
                <path d="M62.1583,33.3037 L62.1931,33.9095 C62.5594921,33.4604559 63.1037221,33.1938197 63.6831,33.1795 C64.1035356,33.1323766 64.5244016,33.2642827 64.8427305,33.5429464 C65.1610593,33.8216102 65.347486,34.2213257 65.3564,34.6443 C65.4309,35.8857 65.3564,37.1271 65.3564,38.4131 L63.9012,38.4131 L63.9012,35.4538 C63.9016288,35.1415856 63.7354605,34.8528588 63.4652893,34.6963803 C63.195118,34.5399018 62.8619892,34.5394444 62.5913892,34.6951803 C62.3207892,34.8509163 62.1538287,35.1391856 62.1534,35.4514 L62.1534,38.4281 L60.6886,38.4281 L60.6886,33.3037 L62.1583,33.3037 Z" id="Path" fill="#114063"></path>
                <path d="M59.6309,36.3625 L56.11,36.3625 C56.2143,37.435 57.3514,37.6634 58.5928,36.859 L59.3928,37.559 C58.5400591,38.5812888 57.0816165,38.8542302 55.9169,38.2095 C54.7518423,37.5051371 54.2803102,36.052428 54.8096,34.7981 C55.2572474,33.5921378 56.5420461,32.9176325 57.7889,33.234 C59.06,33.5371 59.77,34.709 59.6309,36.3625 Z M58.1859,35.4141 C58.0668,34.6941 57.6894,34.3465 57.0637,34.3812 C56.8005111,34.3915265 56.5522044,34.5059833 56.3734065,34.6993904 C56.1946085,34.8927975 56.099966,35.1493114 56.1103,35.4125 L56.1103,35.4141 L58.1859,35.4141 Z" id="Shape" fill="#114063"></path>
                <path d="M21.64,33.2888 L23.08,33.2888 L23.08,33.9244 L23.3879,33.6463 C23.9114038,33.1629233 24.6710017,33.034382 25.3244,33.3186 C25.9584808,33.5624614 26.3606786,34.1899159 26.3175,34.8679 L26.3175,38.4232 L24.8723,38.4232 L24.8723,35.7964 C24.8775325,35.5852558 24.8625644,35.3740949 24.8276,35.1658 C24.7689362,34.779223 24.4231257,34.5025747 24.0331,34.5302 C23.6328095,34.4804304 23.2612987,34.7461122 23.179,35.141 C23.1349795,35.3196959 23.1133138,35.5031657 23.1145,35.6872 L23.1145,38.4232 L21.64,38.4232 L21.64,33.2888 Z" id="Path" fill="#114063"></path>
                <path d="M39.9774,39.63 L40.4739,38.6369 C40.6674297,38.7051159 40.8669394,38.7550017 41.0698,38.7859 C41.4919,38.8259 41.6607,38.5922 41.5068,38.195 C40.9076,36.649 40.3051,35.1063667 39.6993,33.5671 C39.6842944,33.4848894 39.6592748,33.4048265 39.6248,33.3287 L41.179,33.3287 C41.5514,34.441 41.9338,35.5587 42.336,36.755 C42.6836,35.6675 43.016,34.665 43.3291,33.6465 C43.3427131,33.5367111 43.3993851,33.4368276 43.4866473,33.3688258 C43.5739094,33.3008239 43.6846125,33.2702749 43.7944,33.2839 L43.8257,33.289 C44.1881,33.319 44.5557,33.289 44.9826,33.289 L44.2826,35.161 C43.8406,36.3527 43.4086,37.5544 42.9419,38.7362 C42.7666868,39.3359395 42.3001863,39.8064668 41.7019749,39.9868282 C41.1037635,40.1671896 40.4549219,40.0329391 39.9774,39.63 L39.9774,39.63 Z" id="Path" fill="#114063"></path>
                <path d="M69.5421,37.0874 L69.5421,37.7081 C69.5421,38.2891 69.4775,38.3835 68.9015,38.4781 C68.6355344,38.5202647 68.3654675,38.5303368 68.0971,38.5081 C67.7959206,38.5260831 67.4999413,38.4236314 67.2743296,38.2233023 C67.0487178,38.0229731 66.9119719,37.7411919 66.8942,37.44 C66.8910832,37.3886314 66.8915175,37.3371088 66.8955,37.2858 C66.8508,36.3969 66.8955,35.5032 66.8955,34.5845 L66.2748,34.5299 L66.2748,33.2988 L66.8508,33.2488 L66.8508,31.9978 L68.3408,31.9978 L68.3408,33.2541 L69.5176,33.2541 L69.5176,34.54 L68.3454,34.54 L68.3454,36.8242 C68.3454,36.9632 68.6185,37.1668 68.7873,37.1966 C69.0432233,37.202449 69.2983281,37.165542 69.5421,37.0874 L69.5421,37.0874 Z" id="Path" fill="#114063"></path>
                <path d="M15.0852,44.635 C14.1021986,44.684522 13.2650817,43.9279833 13.2152,42.945 C13.2128667,42.8994 13.2123,42.8537333 13.2135,42.808 C13.1854175,42.0412842 13.621962,41.3331488 14.3195708,41.0138 C15.0171797,40.6944513 15.8384688,40.8267806 16.4004677,41.3490821 C16.9624667,41.8713836 17.1544978,42.6807976 16.8870161,43.3998909 C16.6195344,44.1189843 15.9452167,44.6061418 15.1785,44.6342 C15.1473,44.6351333 15.1162,44.6354 15.0852,44.635 Z M14.0524,42.7879 C14.0608185,43.3720403 14.5392124,43.8398296 15.1233947,43.8351537 C15.7075769,43.8304778 16.1784215,43.3550905 16.1774897,42.7708903 C16.1765551,42.1866901 15.7041942,41.7128096 15.12,41.71 C14.5471087,41.6931837 14.069027,42.143912 14.0521,42.7168 C14.0514333,42.7406 14.0515333,42.7643 14.0524,42.7879 Z" id="Shape" fill="#114063"></path>
                <path d="M25.8654,43.339 L26.6897,44.5606 C26.194487,44.7726715 25.6203953,44.5526916 25.3937,44.064 C25.2248,43.7214 25.051,43.2596 24.4353,43.5079 L24.4353,44.5854 L23.6453,44.5854 L23.6453,41.0354 L25.26,41.0354 C25.8314471,40.9552847 26.3771988,41.2995606 26.551,41.8498 C26.7245759,42.4476222 26.4324516,43.0821489 25.8654,43.339 L25.8654,43.339 Z M24.44,42.7432 C24.7198949,42.7838996 25.0042051,42.7838996 25.2841,42.7432 C25.4778,42.6737 25.7409,42.5098 25.7459,42.2466 C25.7223963,42.0154673 25.5514188,41.8264238 25.3238,41.7799 C25.0289038,41.7395996 24.7298962,41.7395996 24.435,41.7799 L24.44,42.7432 Z" id="Shape" fill="#114063"></path>
                <path d="M0,41.035 L1.5592,41.035 C2.3392,41.035 2.7459,41.2734 2.9148,41.8196 C3.09375936,42.4246832 2.8134434,43.0710445 2.2494,43.3539 L2.6466,43.9399 L3.0488,44.5407 C2.3688,44.7343 2.1898,44.6698 1.8273,44.1285 C1.3655,43.4285 1.3655,43.4285 0.8342,43.4731 L0.8342,44.58 L0,44.58 L0,41.035 Z M0.7945,42.7481 C1.07899978,42.7632 1.36410022,42.7632 1.6486,42.7481 C1.92008925,42.7442472 2.13815319,42.5230666 2.13815319,42.25155 C2.13815319,41.9800334 1.92008925,41.7588528 1.6486,41.755 C1.35589169,41.7376 1.06240831,41.7376 0.7697,41.755 L0.7945,42.7481 Z" id="Shape" fill="#114063"></path>
                <polygon id="Path" fill="#114063" points="33.0008 44.5854 33.0008 41.06 35.6723 41.06 35.6723 41.73 33.8251 41.73 33.8251 42.3954 35.424 42.3954 35.424 43.15 33.82 43.15 33.82 43.86 35.6871 43.86 35.6871 44.585"></polygon>
                <polygon id="Path" fill="#114063" points="7.4185 43.8654 7.4185 44.5804 4.7272 44.5804 4.7272 41.06 7.3738 41.06 7.3738 41.7253 5.5266 41.7253 5.5266 42.4053 7.1454 42.4053 7.1454 43.15 5.5266 43.15 5.5266 43.8651"></polygon>
                <path d="M11.2618,41.9487 C10.9255002,41.8428527 10.5819655,41.7615394 10.2339,41.7054 C10.0666616,41.7045817 9.91639507,41.8074146 9.8566,41.9636 C9.8019,42.2367 10.0105,42.2417 10.1247,42.2913 C10.4226,42.4154 10.7503,42.48 11.0532,42.5942 C11.4813712,42.7101342 11.7655528,43.1154527 11.7286,43.5575 C11.7411355,44.0278844 11.4218685,44.4425098 10.9639,44.5506 C10.2341684,44.7495128 9.45338411,44.5623011 8.8932,44.0541 L9.3,43.5575 C9.7022,43.6916 9.9753,43.9299 10.4123,43.9001 C10.5662,43.9001 10.8244,43.9301 10.9088,43.632 C10.9088,43.4185 10.6854,43.3241 10.5315,43.2546 C10.2683,43.1305 9.9654,43.0858 9.6873,42.9815 C9.2761076,42.8598158 9.00275488,42.4711165 9.0273,42.043 C9.01852796,41.5883025 9.31241382,41.1829441 9.7473,41.0499 C10.3975731,40.8549331 11.1021896,40.9943662 11.6292,41.4223 L11.2618,41.9487 Z" id="Path" fill="#114063"></path>
                <path d="M18.67,41.035 L19.45,41.035 L19.45,43.0212 C19.45,43.6767 19.748,43.915 20.2594,43.8902 C20.7708,43.8654 20.9546,43.5873 20.9645,43.0461 L20.9645,41.06 L21.7292,41.06 C21.7292,41.8842 21.7792,42.6936 21.7292,43.4931 C21.6792,44.2926 21.0439,44.67 20.12,44.65 C19.7737013,44.6809503 19.4292928,44.573053 19.1625538,44.3500485 C18.8958149,44.1270439 18.7285996,43.8072032 18.6977,43.4609 L18.6949,43.4236 C18.6306,42.6339 18.67,41.8543 18.67,41.035 Z" id="Path" fill="#114063"></path>
                <path d="M31.3771,41.5316 L30.8806,42.0778 C30.0712,41.5812 29.5647,41.5812 29.1774,42.0778 C28.8320976,42.5372955 28.8571612,43.1761682 29.2374,43.6072 C29.6396,44.0292 30.161,44.0044 30.9058,43.5079 L31.3725,44.0044 C31.0583974,44.388881 30.6044215,44.6328332 30.1104472,44.6825869 C29.6164729,44.7323407 29.1229666,44.5838202 28.7385,44.2697 L28.7358,44.2676 C27.954856,43.5755507 27.8710259,42.3859292 28.5472,41.5912 C29.3000428,40.7936767 30.5568183,40.757325 31.3545,41.51 L31.3771,41.5316 Z" id="Path" fill="#114063"></path>
                <path d="M71.0665,31.8439 C70.5509422,31.8439 70.133,32.2618422 70.133,32.7774 C70.133,33.2929578 70.5509422,33.7109 71.0665,33.7109 C71.5820578,33.7109 72,33.2929578 72,32.7774 C72.0000265,32.5298123 71.9016844,32.2923575 71.7266135,32.1172865 C71.5515425,31.9422156 71.3140877,31.8438735 71.0665,31.8439 L71.0665,31.8439 Z M71.880815,32.7774 C71.8834976,33.2271004 71.5211429,33.5938481 71.0714426,33.5965849 C70.6217423,33.5992912 70.2549753,33.236956 70.2522143,32.7872558 C70.2494844,32.3375557 70.6118,31.9707694 71.0615,31.968 L71.0665,31.968 C71.5143188,31.968 71.8781053,32.3295893 71.880815,32.7774 L71.880815,32.7774 Z M71.4538,33.2243 C71.2403,32.832 71.2601,32.8618 71.2552,32.8519 C71.3588235,32.8010739 71.4229547,32.6941494 71.419,32.5788 C71.419,32.3603 71.28,32.2759 71.0665,32.2759 L70.7983,32.2759 C70.7736681,32.2759 70.7537,32.2958681 70.7537,32.3205 L70.7537,33.2441 C70.7536999,33.2687481 70.7736519,33.2887449 70.7983,33.2888 L70.8629,33.2888 C70.8875871,33.2888 70.9076,33.2687871 70.9076,33.2441 L70.9076,32.8866 L71.1012,32.8866 L71.3048,33.269 C71.3173969,33.2752672 71.3322031,33.2752672 71.3448,33.269 L71.4148,33.269 C71.4302467,33.2689356 71.4445706,33.2609182 71.4527025,33.2477851 C71.4608344,33.2346521 71.4616271,33.2182562 71.4548,33.2044 L71.4538,33.2243 Z M71.1062,32.7277 L70.9076,32.7277 L70.9076,32.4 L71.0715,32.4 C71.1509,32.4 71.2651,32.4 71.2651,32.5589 C71.2690871,32.599533 71.256765,32.6400851 71.2308458,32.6716307 C71.2049266,32.7031764 71.1675346,32.7231301 71.1269,32.7271 C71.1200235,32.7277993 71.1131054,32.7279998 71.1062,32.7277 Z" id="Shape" fill="#114063"></path>
            </g>
        </g>
    </g>
</svg>