<?xml version="1.0" encoding="UTF-8"?>
<svg width="54px" height="54px" viewBox="0 0 54 54" version="1.1" xmlns="http://www.w3.org/2000/svg" xmlns:xlink="http://www.w3.org/1999/xlink">
    <title>Valuate_vertical</title>
    <g id="Symbols" stroke="none" stroke-width="1" fill="none" fill-rule="evenodd">
        <g id="Additional-Resource/Elements/Logos/Valuate-Copy" transform="translate(-17.000000, -11.000000)">
            <g id="Valuate_vertical" transform="translate(17.000000, 11.000000)">
                <polygon id="Path" fill="#5C5C5C" fill-rule="nonzero" points="0 41.585 2.441 41.585 4.334 46.698 4.366 46.698 6.119 41.585 8.393 41.585 5.474 49.026 3.054 49.026"></polygon>
                <path d="M13.7541,48.1338 L13.7218,48.1338 C13.1797402,48.9040847 12.2740677,49.3344811 11.3345,49.2683 C10.6629926,49.3407166 9.99164791,49.1303206 9.48158045,48.6876045 C8.97151299,48.2448883 8.66876781,47.6098171 8.646,46.9348 C8.646,44.327 11.7969,44.284 13.7325,44.284 C13.7165936,43.5180365 13.0827635,42.9099948 12.3168,42.9259 C12.294,42.9264333 12.2712333,42.9274667 12.2485,42.929 C11.5169221,42.9368266 10.8261682,43.2674353 10.3612,43.8323 L9.1246,42.558 C10.0357719,41.7537248 11.2162261,41.3217686 12.4313,41.348 C15.1198,41.348 15.8618,42.7299 15.8618,45.2462 L15.8618,49.08 L13.711,49.08 L13.711,48.1337 L13.7541,48.1338 Z M13.1841,45.7626 C12.4741,45.7626 10.8989,45.8271 10.8989,46.838 C10.8989,47.3757 11.485,47.6553 11.9743,47.6553 C12.883,47.6553 13.7325,47.1767 13.7325,46.2519 L13.7325,45.7572 L13.1841,45.7626 Z" id="Shape" fill="#5C5C5C" fill-rule="nonzero"></path>
                <rect id="Rectangle" fill="#5C5C5C" fill-rule="nonzero" x="17.3028" y="37.4768" width="2.3658" height="11.6033"></rect>
                <path d="M28.1964,49.08 L26.0456,49.08 L26.0456,48.1337 L26.0133,48.1337 C25.5642263,48.8897758 24.7417038,49.3442341 23.8626,49.322 C21.529,49.322 21.0989,47.795 21.0989,45.8163 L21.2333,41.4234 L23.2281,41.504 L23.2281,45.1711 C23.2281,46.0311 23.2281,47.1444 24.4381,47.1444 C25.6481,47.1444 25.8522,46.2034 25.8522,45.2302 L25.8522,41.5041 L28.2181,41.5041 L28.2181,49.08 L28.1964,49.08 Z" id="Path" fill="#5C5C5C" fill-rule="nonzero"></path>
                <path d="M34.3529,48.1338 L34.3206,48.1338 C33.7805692,48.9006827 32.8798717,49.3306421 31.944,49.2683 C31.2725088,49.3406868 30.601191,49.1302773 30.0911463,48.6875644 C29.5811016,48.2448515 29.2783701,47.6097977 29.2556,46.9348 C29.2556,44.327 32.4064,44.284 34.3367,44.284 C34.3306243,43.9175514 34.1792069,43.5685297 33.9157662,43.3137347 C33.6523256,43.0589398 33.2984473,42.9192488 32.932,42.9254 C32.9053333,42.9258 32.8789,42.927 32.8527,42.929 C32.1228553,42.9377151 31.4341145,43.2683063 30.9708,43.8323 L29.7341,42.558 C30.6494862,41.7499494 31.8364601,41.317738 33.0571,41.348 C35.7455,41.348 36.4821,42.7299 36.4821,45.2462 L36.4821,49.08 L34.3314,49.08 L34.3314,48.1337 L34.3529,48.1338 Z M33.7829,45.7626 C33.0729,45.7626 31.5029,45.8271 31.5029,46.838 C31.5029,47.3757 32.089,47.6553 32.5783,47.6553 C33.487,47.6553 34.3365,47.1767 34.3365,46.2519 L34.3365,45.7572 L33.7829,45.7626 Z" id="Shape" fill="#5C5C5C" fill-rule="nonzero"></path>
                <path d="M42.8752,43.3914 L40.7245,43.3914 L40.7245,45.8863 C40.7245,46.6874 40.8213,47.2735 41.8698,47.2735 C42.2116409,47.298093 42.5533074,47.223398 42.8537,47.0584 L42.8537,49.1017 C42.3146695,49.2792229 41.748741,49.36109 41.1815,49.3436 C39.5685,49.3436 38.3587,48.6876 38.3587,46.9993 L38.3587,43.3914 L36.9553,43.3914 L36.9553,41.5041 L38.38,41.5041 L38.38,39.3534 L40.746,39.3534 L40.746,41.5041 L42.8967,41.5041 L42.8967,43.3914 L42.8752,43.3914 Z" id="Path" fill="#5C5C5C" fill-rule="nonzero"></path>
                <path d="M50.5857,47.7252 C49.8078907,48.6691998 48.6472517,49.2139835 47.4241,49.2092 C45.9663428,49.2924229 44.5822555,48.5620065 43.828286,47.3116017 C43.0743165,46.0611969 43.0743165,44.4962031 43.828286,43.2457983 C44.5822555,41.9953935 45.9663428,41.2649771 47.4241,41.3482 C49.5748,41.3482 50.9406,42.886 50.9406,45.2787 L50.9406,45.9992 L45.5637,45.9992 C45.7025942,46.849006 46.4448782,47.4675972 47.3058,47.451 C47.9799124,47.4517858 48.6080522,47.1093388 48.9726,46.5423 L50.5857,47.7252 Z M48.693,44.58 C48.7017764,44.2121039 48.5640211,43.8557945 48.3100486,43.5894816 C48.0560762,43.3231688 47.7066984,43.1686756 47.3388,43.16 C47.317,43.1595 47.2953,43.1595 47.2735,43.16 C46.4416171,43.1224898 45.7290264,43.7495962 45.6605,44.5795 L48.693,44.58 Z" id="Shape" fill="#5C5C5C" fill-rule="nonzero"></path>
                <path d="M37.7833,51.6288 C37.6621612,51.628515 37.5425795,51.6560924 37.4338,51.7094 L37.4338,51.8976 C37.5390229,51.8139412 37.6704276,51.7701632 37.8048,51.774 C38.1254065,51.8039292 38.3705285,52.0729996 38.3705285,52.395 C38.3705285,52.7170004 38.1254065,52.9860708 37.8048,53.016 C37.6704353,53.0197849 37.5390479,52.9760127 37.4338,52.8924 L37.4338,53.07 C37.5425795,53.1233076 37.6621612,53.150885 37.7833,53.1506 C38.0578848,53.1750961 38.3245711,53.0507178 38.4822773,52.8246081 C38.6399836,52.5984984 38.6645729,52.3052632 38.5467253,52.0560468 C38.4288777,51.8068304 38.1866297,51.6397753 37.9118,51.6182 C37.8690382,51.6147 37.8260618,51.6147 37.7833,51.6182 L37.7833,51.6288 Z M37.4233,53.1074 L37.2458,53.1074 L37.2458,50.7362 L37.4233,50.7362 L37.4233,53.1074 Z" id="Shape" fill="#5C5C5C" fill-rule="nonzero"></path>
                <path d="M39.5469,53.6774 C39.4976385,53.8683987 39.3247442,54.001388 39.1275,54.0000108 C39.0618867,53.9975275 38.996859,53.9866728 38.934,53.9677 L38.934,53.7849 C38.9912455,53.8051161 39.0508806,53.8177894 39.1114,53.8226 C39.2566,53.8226 39.3214,53.6881 39.3695,53.5698 L39.5039,53.215 L38.8856,51.6826 L39.1056,51.6826 L39.6111,52.9676 L40.1004,51.6826 L40.3154,51.6826 L39.5469,53.6774 Z" id="Path" fill="#5C5C5C" fill-rule="nonzero"></path>
                <path d="M41.445,50.9728 L42.2784,50.9728 C42.7193,50.9728 43.0903,51.1395 43.0903,51.6933 C43.1222207,51.9974983 42.921031,52.277306 42.6225,52.3439 L43.1602,53.3439 L42.6602,53.3439 L42.1655,52.3922 L41.9074,52.3922 L41.9074,53.3439 L41.445,53.3439 L41.445,50.9728 Z M41.9181,51.9191 L42.2838,51.9191 C42.6279,51.9191 42.6279,51.7901 42.6279,51.6826 C42.6279,51.446 42.3913,51.446 42.316,51.446 L41.9181,51.446 L41.9181,51.9191 Z" id="Shape" fill="#5C5C5C" fill-rule="nonzero"></path>
                <polygon id="Path" fill="#5C5C5C" fill-rule="nonzero" points="43.59 50.978 45.246 50.978 45.246 51.451 44.064 51.451 44.064 51.925 45.01 51.925 45.01 52.398 44.064 52.398 44.064 52.871 45.246 52.871 45.246 53.344 43.59 53.344"></polygon>
                <polygon id="Path" fill="#5C5C5C" fill-rule="nonzero" points="45.72 50.978 47.139 50.978 47.139 51.451 46.193 51.451 46.193 51.925 47.139 51.925 47.139 52.398 46.193 52.398 46.193 53.344 45.72 53.344"></polygon>
                <polygon id="Path" fill="#5C5C5C" fill-rule="nonzero" points="47.612 50.978 48.381 50.978 48.913 52.398 48.919 52.398 49.451 50.978 50.22 50.978 50.22 53.344 49.747 53.344 49.747 51.451 49.747 51.451 49.037 53.344 48.795 53.344 48.091 51.451 48.085 51.451 48.085 53.344 47.612 53.344"></polygon>
                <path d="M53.2741,40.2943 C53.2770332,40.5581842 53.1749832,40.8124184 52.9904139,41.0010387 C52.8058446,41.1896591 52.5538857,41.2972041 52.29,41.3 C52.2792,41.3 52.2683,41.3 52.2575,41.3 C51.7109702,41.2910501 51.2728893,40.8449325 51.2738736,40.2983303 C51.2748612,39.7517281 51.7145486,39.3071938 52.2611071,39.3002156 C52.8076657,39.2932373 53.2585591,39.7264011 53.2735,40.2728 L53.2735,40.2945 M51.4884,40.2945 C51.4765267,40.7219681 51.813432,41.0781251 52.2409,41.09 C52.2481,41.09 52.2554,41.09 52.2627,41.09 C52.5844552,41.0986999 52.8797687,40.9127215 53.010935,40.618787 C53.1421013,40.3248526 53.0832892,39.980848 52.8619229,39.7471836 C52.6405566,39.5135191 52.300231,39.4362116 51.9996407,39.5513097 C51.6990504,39.6664078 51.4973922,39.9512446 51.4887,40.273 L51.4887,40.2942 M52.0963,40.8319 L51.8704,40.8319 L51.8704,39.8212 C51.9974333,39.8103 52.1251667,39.8103 52.2522,39.8212 C52.3712579,39.8107302 52.490795,39.8350475 52.5963,39.8912 C52.6594805,39.9466338 52.6949155,40.027168 52.6931,40.1112 C52.6836262,40.2249681 52.6005374,40.3189971 52.4888,40.3424 L52.4888,40.3424 C52.5890483,40.3828881 52.6577552,40.4766145 52.6662,40.5844 C52.676407,40.6706526 52.7019058,40.7543955 52.7415,40.8317 L52.4942,40.8317 C52.4556542,40.7554307 52.4284666,40.6739355 52.4135,40.5898 C52.4135,40.4822 52.3329,40.4338 52.2092,40.4338 L52.0963,40.4338 L52.0963,40.8319 Z M52.0963,40.2942 L52.2038,40.2942 C52.3329,40.2942 52.435,40.2512 52.435,40.1491 C52.435,40.047 52.365,39.9985 52.2199,39.9985 L52.0963,39.9985 L52.0963,40.2942 Z" id="Shape" fill="#5C5C5C" fill-rule="nonzero"></path>
                <g id="Group" transform="translate(7.339500, 0.000000)">
                    <circle id="Oval" fill="#525252" fill-rule="nonzero" cx="16.8565" cy="16.8565" r="16.8565"></circle>
                    <g id="mobile-nav-logo-2" transform="translate(6.151500, 5.431000)">
                        <polygon id="Shape" fill="#F78D1E" points="11.409 18.098 21.728 -8.8817842e-16 11.409 26.19"></polygon>
                        <polygon id="Shape-2" fill="#F78D1E" points="11.409 7.291 17.48 -8.8817842e-16 11.409 12.318"></polygon>
                        <polygon id="Shape-3" fill="#FFFFFF" points="10.35 18.098 0 -8.8817842e-16 10.35 26.19"></polygon>
                        <polygon id="Shape-4" fill="#FFFFFF" points="10.35 7.291 4.548 -8.8817842e-16 10.35 12.318"></polygon>
                    </g>
                </g>
            </g>
        </g>
    </g>
</svg>