<?xml version="1.0" encoding="UTF-8"?>
<svg width="72px" height="20px" viewBox="0 0 72 20" version="1.1" xmlns="http://www.w3.org/2000/svg" xmlns:xlink="http://www.w3.org/1999/xlink">
    <title>ShowingTimeBlue</title>
    <g id="Symbols" stroke="none" stroke-width="1" fill="none" fill-rule="evenodd">
        <g id="Additional-Resource/Elements/Logos/ShowingTime-Copy" transform="translate(-8.000000, -29.000000)" fill-rule="nonzero">
            <g id="ShowingTimeBlue" transform="translate(8.000000, 29.000000)">
                <g id="Group" transform="translate(31.561644, 0.000000)" fill="#F6841D">
                    <path d="M0.712741351,8.69447978 C0.122866013,8.69447978 -0.154028977,8.23619944 0.0867806537,7.65059781 C0.327590284,7.07771559 0.989636341,6.60671585 1.57951168,6.60671585 C2.16938702,6.60671585 2.44628201,7.07771559 2.20547238,7.65059781 C1.96466275,8.24891885 1.30261669,8.69447978 0.712741351,8.69447978 Z" id="Path"></path>
                    <path d="M11.1860357,2.08776393 C10.5961604,2.08776393 10.3192654,1.62948359 10.560075,1.04388196 C10.8008847,0.470999746 11.4629307,0 12.052806,0 C12.6426814,0 12.9195764,0.470999746 12.6787667,1.04388196 C12.4379571,1.62948359 11.7759111,2.08776393 11.1860357,2.08776393 Z" id="Path"></path>
                    <path d="M15.3753054,3.04248283 C14.78543,3.04248283 14.508535,2.58420249 14.7493447,1.99860086 C14.9901543,1.42571865 15.6522003,0.954718901 16.2420757,0.954718901 C16.831951,0.954718901 17.108846,1.42571865 16.8680364,1.99860086 C16.6272268,2.58420249 15.9651807,3.04248283 15.3753054,3.04248283 Z" id="Path"></path>
                    <path d="M18.8663233,5.3211651 C18.276448,5.3211651 17.999553,4.86288476 18.2403626,4.27728313 C18.4811722,3.70440092 19.1432183,3.23340117 19.7330936,3.23340117 C20.322969,3.23340117 20.5998639,3.70440092 20.3590543,4.27728313 C20.118365,4.86288476 19.4561986,5.3211651 18.8663233,5.3211651 Z" id="Path"></path>
                    <path d="M6.86421253,2.90244213 C6.2743372,2.90244213 5.99744221,2.44416179 6.23825184,1.85856016 C6.47906147,1.28567794 7.14110752,0.814678199 7.73098286,0.814678199 C8.3208582,0.814678199 8.59775319,1.28567794 8.35694356,1.85856016 C8.10422576,2.44416179 7.44205942,2.90244213 6.86421253,2.90244213 Z" id="Path"></path>
                    <path d="M3.22873288,5.37204274 C2.63885754,5.37204274 2.36196255,4.9137624 2.60277218,4.32816077 C2.84358181,3.75527856 3.50562787,3.28427881 4.09550321,3.28427881 C4.68537855,3.28427881 4.96227354,3.75527856 4.7214639,4.32816077 C4.48065427,4.9137624 3.81860822,5.37204274 3.22873288,5.37204274 Z" id="Path"></path>
                    <path d="M21.1054198,9 C20.5155445,9 20.2386495,8.54171966 20.4794591,7.95611804 C20.7202688,7.38323582 21.3823148,6.91223607 21.9721902,6.91223607 C22.5620655,6.91223607 22.8389605,7.38323582 22.5981509,7.95611804 C22.3574615,8.54171966 21.6952952,9 21.1054198,9 Z" id="Path"></path>
                </g>
                <g id="Group" transform="translate(0.000000, 3.000000)" fill="#000640">
                    <path d="M2.0394917,13.9364623 C0.966118921,13.9364623 0.345834107,13.7230684 0,13.3588813 L1.13307743,11.7643864 C1.32387012,11.9777802 1.74132597,12.2163899 2.34957452,12.2163899 C3.0651961,12.2163899 3.70919593,11.7518412 3.99544456,11.0613534 C4.257859,10.4461368 4.0789834,10.0569847 3.38719601,9.63007158 C2.31382323,8.95212899 2.38532581,7.89745406 2.77894747,6.95581138 C3.45869859,5.32355546 5.09265153,3.96754483 6.78630912,3.96754483 C7.71655759,3.96754483 8.30097194,4.21869973 8.58722057,4.53258062 L7.57343327,5.92622685 C7.35880638,5.712833 6.97710182,5.4993137 6.45227294,5.4993137 C5.77240265,5.4993137 5.22385875,5.92622685 4.93761012,6.61671463 C4.63944439,7.31987307 4.93761012,7.67138957 5.52202448,8.03545126 C6.8458946,8.87660689 6.6551019,9.90619142 6.24956315,10.8980149 C5.49819029,12.6433031 3.75686431,13.9364623 2.0394917,13.9364623 Z" id="Path"></path>
                    <path d="M9.41021518,13.7984651 L11.6166654,8.5125452 C11.8671627,7.92241901 11.8193752,7.44532507 11.0560852,7.44532507 C10.7460024,7.44532507 10.4597538,7.49550587 10.1377539,7.65871891 L7.57355244,13.7983396 L5.59364622,13.7983396 L10.2092564,2.73711165 L12.1771264,2.73711165 L10.6267123,6.45350159 C11.1753753,6.22756254 11.7120021,6.10198509 12.236831,6.10198509 C13.9424057,6.10198509 14.1331984,7.19429562 13.5964524,8.4623644 L11.3900022,13.7983396 L9.41021518,13.7983396 L9.41021518,13.7984651 Z" id="Path"></path>
                    <path d="M17.6039333,9.96904288 C17.031436,11.3375987 16.3874362,12.4549996 15.5167732,12.4549996 C14.6580273,12.4549996 14.9323588,11.3375987 15.5048561,9.96904288 C16.0654363,8.61303225 16.7451874,7.43290532 17.6158504,7.43290532 C18.4865133,7.43277987 18.1643943,8.61303225 17.6039333,9.96904288 Z M19.547969,9.99413327 C20.4901346,7.72157036 20.1562176,6.06434949 18.1645134,6.06434949 C16.2085606,6.06434949 14.4791517,7.72169582 13.5249499,9.99413327 C12.5827843,12.2666962 12.9167013,13.9364623 14.8845713,13.9364623 C16.8644775,13.9364623 18.5937672,12.2666962 19.547969,9.99413327 Z" id="Shape"></path>
                    <path d="M25.6424908,13.7984651 L23.8177451,13.7984651 L24.5572009,9.68025238 C24.6526568,9.17806804 24.8553666,8.63812265 24.8553666,8.63812265 L24.8434495,8.63812265 C24.8434495,8.63812265 24.5929522,9.17794259 24.2590352,9.68025238 L21.5396732,13.7984651 L19.7387617,13.7984651 L21.0387977,6.20247214 L22.9947505,6.20247214 L21.9809632,10.5842595 C21.8378389,11.1994761 21.6470462,11.67657 21.6470462,11.67657 L21.6708804,11.67657 C21.6708804,11.67657 21.8735902,11.2120213 22.291046,10.5842595 L25.1534132,6.20247214 L26.775449,6.20247214 L25.9167031,10.5842595 C25.8093301,11.1240794 25.6185374,11.67657 25.6185374,11.67657 L25.6423716,11.67657 C25.6423716,11.67657 25.8928689,11.1115342 26.238703,10.5591691 L28.9341117,6.18992694 L30.6635206,6.18992694 L25.6424908,13.7984651 Z" id="Path"></path>
                    <polygon id="Path" points="27.848941 13.7984651 31.0215101 6.20247214 32.9893801 6.20247214 29.8169301 13.7984651"></polygon>
                    <path d="M34.4682916,13.7984651 L36.6866589,8.48758025 C36.913322,7.94776031 36.913322,7.43290532 36.1141616,7.43290532 C35.72054,7.43290532 35.4820789,7.50817652 35.2196645,7.58357317 L32.6195926,13.7984651 L30.6517226,13.7984651 L33.645297,6.62938529 C34.4682916,6.29041399 35.5178302,6.06434949 36.7343273,6.06434949 C38.8931091,6.06434949 39.2389432,7.09393403 38.6545288,8.47503505 L36.4361615,13.7984651 L34.4682916,13.7984651 Z" id="Path"></path>
                    <path d="M41.5648027,12.417364 C41.3501758,12.5303963 41.0996785,12.6056675 40.837264,12.6056675 C39.8473109,12.6056675 39.7877254,11.7896022 40.503347,10.0695299 C41.266637,8.24897056 42.0657974,7.33241827 43.0675484,7.33241827 C43.3299629,7.33241827 43.5207556,7.37005387 43.6400457,7.45799572 L41.5648027,12.417364 Z M42.8886728,13.8611911 L45.9062005,6.62925983 C45.5603664,6.30283374 44.7731231,6.06422404 43.7235845,6.06422404 C41.3859271,6.06422404 39.5611815,7.65871891 38.4996066,10.1949819 C37.5574411,12.4675448 38.1418554,13.8611911 39.7758084,13.8611911 C40.3483056,13.8611911 40.7776786,13.760704 41.0639272,13.6225814 L40.8850516,14.0494945 C40.5152641,14.9284112 39.9070156,15.4682311 38.8813112,15.4682311 C38.2373113,15.4682311 37.7005654,15.2673825 37.3904825,15.0162276 L36.2932756,16.4349642 C36.6988143,16.7739355 37.5456431,17 38.5951817,17 C40.3362693,17 41.9941757,16.0081765 42.8886728,13.8611911 Z" id="Shape"></path>
                    <polygon id="Path" points="49.579526 5.64998155 46.1684958 13.8110103 44.1051699 13.8110103 47.5162001 5.64998155 46.0015373 5.64998155 46.6455371 4.11821268 51.7263907 4.11821268 51.0823909 5.64998155"></polygon>
                    <polygon id="Path" points="47.9217389 13.7984651 51.094308 6.20247214 53.062178 6.20247214 49.8896088 13.7984651"></polygon>
                    <path d="M58.3695756,13.7984651 L60.59986,8.47503505 C60.8384402,7.89745406 60.7310672,7.44545052 60.0392798,7.44545052 C59.6934457,7.44545052 59.3594095,7.55848277 59.0254925,7.80951221 L56.5208766,13.7984651 L54.5530066,13.7984651 L56.783291,8.4498192 C57.0337883,7.84714781 56.8190423,7.44545052 56.1392912,7.44545052 C55.78154,7.44545052 55.5667939,7.48308612 55.2805453,7.58357317 L52.6804734,13.7984651 L50.7126034,13.7984651 L53.7061778,6.62938529 C54.6245092,6.25277839 55.5070893,6.06434949 56.6997522,6.06434949 C57.8209125,6.06434949 58.3337051,6.40332079 58.5484512,6.83023393 C59.1447826,6.41586599 59.9916114,6.06434949 61.1126526,6.06434949 C62.7346884,6.06434949 63.116393,7.13156963 62.5558128,8.47503505 L60.3374455,13.7984651 L58.3695756,13.7984651 Z" id="Path"></path>
                    <path d="M66.8972107,9.30364549 L64.3568434,9.69292303 C64.9412578,8.12351856 65.7761695,7.3576341 66.5871278,7.3576341 C67.3027494,7.35750867 67.4577908,7.96018006 66.8972107,9.30364549 Z M68.3880393,10.1197107 C69.5449509,7.55835732 69.1751634,6.06434949 67.1953764,6.06434949 C65.2394235,6.06434949 63.4861804,7.59611837 62.4843102,9.98158807 C61.4705229,12.4048188 62.0311031,13.9365877 64.1182632,13.9365877 C65.2632577,13.9365877 66.1339207,13.6854328 66.7898376,13.3840971 L66.9210448,12.0155413 C66.4678377,12.2289351 65.7760503,12.4299092 64.9770091,12.4299092 C63.9751389,12.4299092 63.7008073,11.8774186 64.0229264,10.7725629 L68.3880393,10.1197107 Z" id="Shape"></path>
                    <polygon id="Path" points="34.9931205 4.54512582 45.4052059 4.67070327 40.4436424 0 42.805134 3.76669618"></polygon>
                </g>
                <path d="M70.2933969,10 L70.0273973,10 L70.0273973,8.05878594 C70.1322679,8.03546326 70.2790491,8 70.4677409,8 C70.6846561,8 70.7829193,8.05878594 70.8595664,8.15367412 C70.9297005,8.23674121 70.9782185,8.37875399 70.9782185,8.56789137 C70.9782185,8.80463259 70.8733478,8.95878594 70.7410087,9.02971246 L70.7410087,9.05303514 C70.8524869,9.11230032 70.9087452,9.26645367 70.9434818,9.52651757 C70.9782185,9.82252396 71.0063476,9.92907348 71.0273973,10 L70.7476163,10 C70.7128796,9.92907348 70.6919244,9.76325879 70.6571877,9.52651757 C70.6362325,9.32523962 70.5660984,9.23051118 70.4193172,9.23051118 L70.2934913,9.23051118 L70.2934913,10 L70.2933969,10 Z M70.3000044,8.91102236 L70.4258303,8.91102236 C70.5731779,8.91102236 70.69183,8.8284345 70.69183,8.62715655 C70.69183,8.44968051 70.6151828,8.33115016 70.4467856,8.33115016 C70.3773123,8.33115016 70.3281335,8.34329073 70.3000044,8.35495208 L70.3000044,8.91102236 Z" id="Shape" fill="#000640"></path>
                <path d="M70.5205479,10 C69.7047179,10 69.0410959,9.32716101 69.0410959,8.5 C69.0410959,7.67283899 69.7047179,7 70.5205479,7 C71.336378,7 72,7.67283899 72,8.5 C72,9.32716101 71.336378,10 70.5205479,10 Z M70.5205479,7.25732791 C69.8446412,7.25732791 69.2948988,7.81470564 69.2948988,8.5 C69.2948988,9.18529436 69.8446412,9.74267209 70.5205479,9.74267209 C71.1964547,9.74267209 71.7461971,9.18529436 71.7461971,8.5 C71.7461971,7.81483019 71.1963319,7.25732791 70.5205479,7.25732791 Z" id="Shape" fill="#000640"></path>
            </g>
        </g>
    </g>
</svg>