<?xml version="1.0" encoding="UTF-8"?>
<svg width="63px" height="63px" viewBox="0 0 63 63" version="1.1" xmlns="http://www.w3.org/2000/svg" xmlns:xlink="http://www.w3.org/1999/xlink">
    <title>back-to-top</title>
    <g id="Tabs" stroke="none" stroke-width="1" fill="none" fill-rule="evenodd">
        <g id="Prop-Details-Comm--Property-Info" transform="translate(-1673.000000, -4995.000000)">
            <g id="back-to-top" transform="translate(1673.653409, 4995.653409)">
                <g id="Base">
                    <path d="M30.8465909,0.346590909 C47.6912758,0.346590909 61.3465909,14.001906 61.3465909,30.8465909 L61.3465909,49.3465909 C61.3465909,55.9740079 55.9740079,61.3465909 49.3465909,61.3465909 L30.8465909,61.3465909 C14.001906,61.3465909 0.346590909,47.6912758 0.346590909,30.8465909 C0.346590909,14.001906 14.001906,0.346590909 30.8465909,0.346590909 Z M30.8465909,3.8125 C15.9160748,3.8125 3.8125,15.9160748 3.8125,30.8465909 C3.8125,45.777107 15.9160748,57.8806818 30.8465909,57.8806818 C45.777107,57.8806818 57.8806818,45.777107 57.8806818,30.8465909 C57.8806818,15.9160748 45.777107,3.8125 30.8465909,3.8125 Z M30.8465909,4.50568182 C45.3942733,4.50568182 57.1875,16.2989085 57.1875,30.8465909 C57.1875,45.3942733 45.3942733,57.1875 30.8465909,57.1875 C16.2989085,57.1875 4.50568182,45.3942733 4.50568182,30.8465909 C4.50568182,16.2989085 16.2989085,4.50568182 30.8465909,4.50568182 Z" id="Background" fill="#0070C1"></path>
                    <path d="M30.8465909,3.8125 C45.777107,3.8125 57.8806818,15.9160748 57.8806818,30.8465909 C57.8806818,45.777107 45.777107,57.8806818 30.8465909,57.8806818 C15.9160748,57.8806818 3.8125,45.777107 3.8125,30.8465909 C3.8125,15.9160748 15.9160748,3.8125 30.8465909,3.8125 Z M30.8465909,4.50568182 C16.2989085,4.50568182 4.50568182,16.2989085 4.50568182,30.8465909 C4.50568182,45.3942733 16.2989085,57.1875 30.8465909,57.1875 C45.3942733,57.1875 57.1875,45.3942733 57.1875,30.8465909 C57.1875,16.2989085 45.3942733,4.50568182 30.8465909,4.50568182 Z" id="Inner" fill="#7DBAE5" fill-rule="nonzero"></path>
                </g>
                <path d="M22.1520854,37.1323812 C22.7380229,37.7183187 23.6872417,37.7183187 24.2731792,37.1323812 L24.2731792,37.1323812 L32.2138039,29.191755 L40.1534916,37.128865 C40.4459912,37.4218337 40.829992,37.5683181 41.2138039,37.5683181 C41.5981795,37.5683181 41.9825536,37.4230053 42.2731792,37.1323812 C42.8591167,36.5464437 42.8591167,35.5972249 42.2731792,35.0112874 L42.2731792,35.0112874 L33.2731792,26.0112874 C32.6872417,25.4253499 31.7380229,25.4253499 31.1520854,26.0112874 L31.1520854,26.0112874 L22.1520854,35.0112874 C21.5661479,35.5972249 21.5661479,36.5464437 22.1520854,37.1323812 Z" id="ï·" fill="#FFFFFF" fill-rule="nonzero" transform="translate(32.212632, 31.571834) rotate(133.000000) translate(-32.212632, -31.571834) "></path>
            </g>
        </g>
    </g>
</svg>