<svg xmlns="http://www.w3.org/2000/svg" width="32" height="42.01" viewBox="0 0 32 42.01"><defs><style>.a{fill:#0070c1;}.b{fill:#f5fbff;}.c{isolation:isolate;}</style></defs><path class="a" d="M27.31,4.71a15.93,15.93,0,0,0-22.62,0A16,16,0,0,0,0,16.08C0,23.91,11.68,37.29,15.26,41.2L16,42l.74-.81C20.32,37.29,32,23.91,32,16.08A16,16,0,0,0,27.31,4.71ZM16,39c-6.9-7.68-14-17.5-14-23a14.06,14.06,0,0,1,4.1-10,14,14,0,0,1,19.8,0,14.06,14.06,0,0,1,4.1,10C30,21.53,22.9,31.36,16,39Z"/><path class="b" d="M25.9,6.12a14,14,0,0,0-19.8,0,14.06,14.06,0,0,0-4.1,10c0,5.46,7.1,15.28,14,23,6.9-7.68,14-17.51,14-23A14.06,14.06,0,0,0,25.9,6.12ZM22.17,25H19.52l-2.85-5.47H13.92V25H11.45V10.78h5a5.77,5.77,0,0,1,3.79,1.11,3.87,3.87,0,0,1,1.34,3.19,4,4,0,0,1-.69,2.39A4.36,4.36,0,0,1,19,19l3.2,5.92Z"/><g class="c"><g class="c"><path class="a" d="M19,19a4.36,4.36,0,0,0,1.92-1.48,4,4,0,0,0,.69-2.39,3.87,3.87,0,0,0-1.34-3.19,5.77,5.77,0,0,0-3.79-1.11h-5V25h2.47V19.53h2.75L19.52,25h2.65v-.13Zm-2.51-1.41H13.92V12.77h2.6a2.77,2.77,0,0,1,1.94.65,2.33,2.33,0,0,1,.65,1.77,2.18,2.18,0,0,1-.7,1.72A2.82,2.82,0,0,1,16.46,17.54Z"/><path class="b" d="M19.11,15.19a2.18,2.18,0,0,1-.7,1.72,2.82,2.82,0,0,1-1.95.63H13.92V12.77h2.6a2.77,2.77,0,0,1,1.94.65A2.33,2.33,0,0,1,19.11,15.19Z"/></g></g></svg>