<?xml version="1.0" encoding="UTF-8"?>
<svg width="20px" height="16px" viewBox="0 0 20 16" version="1.1" xmlns="http://www.w3.org/2000/svg" xmlns:xlink="http://www.w3.org/1999/xlink">
    <title>icon-full-width</title>
    <g id="Symbols" stroke="none" stroke-width="1" fill="none" fill-rule="evenodd">
        <g id="Icon/Full-width" fill="#0070C1" fill-rule="nonzero">
            <g id="icon-full-width">
                <path d="M19,0 C19.5522847,0 20,0.44771525 20,1 L20,15 C20,15.5522847 19.5522847,16 19,16 L1,16 C0.44771525,16 0,15.5522847 0,15 L0,1 C0,0.44771525 0.44771525,0 1,0 L19,0 Z M18.75,1.25 L1.25,1.25 L1.25,14.75 L18.75,14.75 L18.75,1.25 Z" id="Rectangle"></path>
                <path d="M14.3553819,4.65731182 L14.4419417,4.72963114 L17.7123106,8 L14.4419417,11.2703689 C14.1978641,11.5144465 13.8021359,11.5144465 13.5580583,11.2703689 C13.3411003,11.0534109 13.3169939,10.7166304 13.4857389,10.4730452 L13.5580583,10.3864854 L15.3196894,8.62457288 L4.6796894,8.62457288 L6.44194174,10.3864854 C6.65889968,10.6034433 6.68300612,10.9402238 6.51426105,11.183809 L6.44194174,11.2703689 C6.2249838,11.4873268 5.8882033,11.5114332 5.64461812,11.3426882 L5.55805826,11.2703689 L2.2876894,8 L5.55805826,4.72963114 C5.80213594,4.48555345 6.19786406,4.48555345 6.44194174,4.72963114 C6.65889968,4.94658908 6.68300612,5.28336958 6.51426105,5.52695475 L6.44194174,5.61351461 L4.6796894,7.37457288 L15.3196894,7.37457288 L13.5580583,5.61351461 C13.3411003,5.39655667 13.3169939,5.05977617 13.4857389,4.816191 L13.5580583,4.72963114 C13.7750162,4.5126732 14.1117967,4.48856676 14.3553819,4.65731182 Z" id="Combined-Shape"></path>
            </g>
        </g>
    </g>
</svg>