<?xml version="1.0" encoding="UTF-8"?>
<svg width="86px" height="74px" viewBox="0 0 86 74" version="1.1" xmlns="http://www.w3.org/2000/svg" xmlns:xlink="http://www.w3.org/1999/xlink">
    <title>icon-empty-photo</title>
    <defs>
        <filter color-interpolation-filters="auto" id="filter-1">
            <feColorMatrix in="SourceGraphic" type="matrix" values="0 0 0 0 0.000000 0 0 0 0 0.439216 0 0 0 0 0.756863 0 0 0 1.000000 0"></feColorMatrix>
        </filter>
    </defs>
    <g id="Tabs" stroke="none" stroke-width="1" fill="none" fill-rule="evenodd">
        <g id="Prop-Details---My-Updates" transform="translate(-1184.000000, -1408.000000)">
            <g id="Add-updates---Empty-State-Photos" transform="translate(782.000000, 1075.000000)">
                <g id="update-empty-photos" transform="translate(49.000000, 138.000000)">
                    <g id="icon-empty-photo" transform="translate(353.000000, 195.000000)">
                        <rect id="Rectangle" stroke="#0070C1" stroke-width="3" x="1.5" y="1.5" width="83" height="71" rx="8"></rect>
                        <g id="accent-grave" transform="translate(13.000000, 6.500000)" filter="url(#filter-1)">
                            <g id="Group" transform="translate(-0.000000, 6.000802)" fill="#000000" fill-rule="nonzero">
                                <path d="M22.0023902,23.9148263 L14.0057822,23.9148263 C12.8995692,23.9148263 11.9995992,24.8897937 11.9995992,25.9960068 L11.9995992,33.9888648 C11.9995992,35.1025776 12.9026628,35.9931729 14.0048448,35.9931729 L22.0033276,35.9931729 C23.1057908,35.9931729 24.0085732,35.0908593 24.0085732,33.9888648 L24.0085732,25.9960068 C24.0085732,24.8991684 23.1179779,23.9148263 22.0023902,23.9148263 Z M21.0086733,32.9145257 L14.999499,32.9145257 L14.999499,26.9990983 L21.0002361,26.9990983 L21.0086733,32.9145257 Z M20.2024503,9.85279593 C19.5743463,9.28375244 18.7868726,8.99969943 17.9150267,8.99969943 C17.0431808,8.99969943 16.4244515,9.28375244 15.7963474,9.85279593 L1.60682134,22.7523651 C0.583386766,23.6804591 0,25.00229 0,26.3803689 L0,41.9985973 C0,45.3125491 2.6858478,47.9983969 5.99979962,47.9983969 L29.9146259,47.9983969 C33.2285777,47.9983969 35.8300533,45.3209864 35.9144255,42.007972 L35.9987977,26.3616196 C35.9987977,24.9882279 35.4140047,23.6795216 34.3976012,22.756115 L20.2024503,9.85279593 Z M32.9145257,41.9985973 C32.9143382,43.6485422 31.5645708,44.9984971 29.9146259,44.9984971 L5.99979962,44.9984971 C4.34329244,44.9984971 2.99989981,43.6551045 2.99989981,41.9985973 L2.99989981,26.3803689 C2.99989981,25.8424494 3.22676723,25.3294665 3.62481644,24.9676036 L17.9150267,11.9152271 L32.2957964,24.8897937 C32.7739054,25.330404 32.9988979,25.8460118 32.9988979,26.3803689 L32.9145257,41.9985973 Z M58.8917831,40.5548955 L53.1451001,33.9148048 C54.6544246,33.8737906 56.1328128,32.9642116 56.7974781,31.5242596 C57.4713306,30.0693082 57.248588,28.4034264 56.2088415,27.1744049 L49.9756122,19.837775 L50.6639017,19.837775 C52.166664,19.837775 53.5109941,18.990022 54.0884748,17.6787846 C54.6304254,16.4469507 54.3960583,15.0538722 53.4674018,14.0385936 L41.6142352,1.15964877 C40.2108445,-0.3862371 37.413438,-0.383424694 36.0166096,1.15085531 L28.892785,8.89751534 C28.3396785,9.50593252 28.3771773,10.4621506 28.9865319,11.0246318 C29.5986052,11.5849568 30.5474173,11.5468019 31.1070861,10.9365566 L38.2337231,3.18087814 C38.5032453,2.88463803 39.1183185,2.88173188 39.4055589,3.1896716 L51.2645379,16.0704914 C51.3875338,16.2053931 51.4109705,16.3286703 51.3494913,16.4694781 C51.2703877,16.6483471 51.0536262,16.8360283 50.6698265,16.8360283 L46.7362078,16.8360283 C46.1502899,16.8360283 45.6196826,17.1764232 45.3740658,17.707218 C45.1281678,18.2382003 45.2160086,18.8659293 45.5938085,19.3121644 L53.9279052,29.1180869 C54.3263294,29.5902899 54.1710845,30.0714925 54.0861499,30.2589863 C54.0129054,30.4115124 53.7257869,30.9132457 53.0314976,30.9132457 L49.8675408,30.9132457 C49.2816228,30.9132457 48.7453907,31.2563592 48.5025864,31.7902476 C48.259407,32.3269485 48.3502477,32.9545838 48.7338599,33.3980064 L56.6310961,42.5205143 C57.2199202,43.1982104 56.950398,43.9370295 56.8537449,44.1488974 C56.7394675,44.4041701 56.3851981,44.9937442 55.579725,44.9937442 L40.5052285,44.9937442 C39.6761311,44.9937442 39.0052785,45.6655342 39.0052785,46.495569 C39.0052785,47.3256975 39.6761311,47.9973939 40.5052285,47.9973939 L55.579725,47.9973939 C57.3196669,47.9973939 58.8543031,46.9999272 59.5836538,45.3959182 C60.3261102,43.7610385 60.063619,41.9048505 58.8917831,40.5548955 Z" id="Shape"></path>
                            </g>
                        </g>
                        <circle id="Oval" stroke="#0070C1" stroke-width="3" cx="18.5" cy="18.5" r="5"></circle>
                    </g>
                </g>
            </g>
        </g>
    </g>
</svg>