<svg xmlns="http://www.w3.org/2000/svg" width="32" height="42.01" viewBox="0 0 32 42.01"><defs><style>.a{fill:#eb661b;}.b{fill:#fde3d5;}.c{isolation:isolate;}</style></defs><path class="a" d="M27.31,4.71a15.93,15.93,0,0,0-22.62,0A16,16,0,0,0,0,16.08C0,23.91,11.68,37.29,15.26,41.2L16,42l.74-.81C20.32,37.29,32,23.91,32,16.08A16,16,0,0,0,27.31,4.71ZM16,39c-6.9-7.68-14-17.5-14-23a14.06,14.06,0,0,1,4.1-10,14,14,0,0,1,19.8,0,14.06,14.06,0,0,1,4.1,10C30,21.53,22.9,31.36,16,39Z"/><path class="b" d="M25.9,6.12a14,14,0,0,0-19.8,0,14.06,14.06,0,0,0-4.1,10c0,5.46,7.1,15.28,14,23,6.9-7.68,14-17.51,14-23A14.06,14.06,0,0,0,25.9,6.12ZM13.3,22a2.74,2.74,0,0,0,2.42,1.21,3.18,3.18,0,0,0,2.19-.65,3.46,3.46,0,0,0,.92-2.18h2.46a5.13,5.13,0,0,1-1.67,3.55,5.74,5.74,0,0,1-3.9,1.28,5.51,5.51,0,0,1-3-.81,5.27,5.27,0,0,1-2-2.29A8.26,8.26,0,0,1,10,18.65V17.32a8.23,8.23,0,0,1,.71-3.54,5.37,5.37,0,0,1,2-2.36,5.67,5.67,0,0,1,3.09-.83,5.47,5.47,0,0,1,3.78,1.27,5.28,5.28,0,0,1,1.67,3.61H18.83a3.46,3.46,0,0,0-.89-2.21,2.92,2.92,0,0,0-2.1-.68,2.88,2.88,0,0,0-2.48,1.18,5.8,5.8,0,0,0-.88,3.45v1.26A6.25,6.25,0,0,0,13.3,22Z"/><g class="c"><g class="c"><path class="a" d="M18.83,20.37h2.46a5.13,5.13,0,0,1-1.67,3.55,5.74,5.74,0,0,1-3.9,1.28,5.51,5.51,0,0,1-3-.81,5.27,5.27,0,0,1-2-2.29A8.26,8.26,0,0,1,10,18.65V17.32a8.23,8.23,0,0,1,.71-3.54,5.37,5.37,0,0,1,2-2.36,5.67,5.67,0,0,1,3.09-.83,5.47,5.47,0,0,1,3.78,1.27,5.28,5.28,0,0,1,1.67,3.61H18.83a3.46,3.46,0,0,0-.89-2.21,2.92,2.92,0,0,0-2.1-.68,2.88,2.88,0,0,0-2.48,1.18,5.8,5.8,0,0,0-.88,3.45v1.26A6.25,6.25,0,0,0,13.3,22a2.74,2.74,0,0,0,2.42,1.21,3.18,3.18,0,0,0,2.19-.65A3.46,3.46,0,0,0,18.83,20.37Z"/></g></g></svg>