<svg xmlns="http://www.w3.org/2000/svg" viewBox="0 0 83.88 59.88"><defs><style>.a{fill:#0062a8;}.b{fill:none;}.c{fill:#f4b57e;}</style></defs><path class="a" d="M83,54.76l-8.49-8.49a3,3,0,0,0-1.45-.78,16,16,0,0,0-8.06-26V4.75A4.75,4.75,0,0,0,60.25,0H4.75A4.75,4.75,0,0,0,0,4.75v36.5A4.75,4.75,0,0,0,4.75,46H49.4a16,16,0,0,0,20,2.61,3,3,0,0,0,.87,1.9L78.76,59A3,3,0,1,0,83,54.76ZM4.75,44.5A3.26,3.26,0,0,1,1.5,41.25V4.75A3.26,3.26,0,0,1,4.75,1.5h55.5A3.26,3.26,0,0,1,63.5,4.75V19.2A15.81,15.81,0,0,0,61,19c-.34,0-.67,0-1,0V11.75A2.75,2.75,0,0,0,57.25,9H39.75A2.75,2.75,0,0,0,37,11.75v13.5A2.75,2.75,0,0,0,39.75,28h6.87a15.77,15.77,0,0,0-1.52,5.25H37.75a.75.75,0,0,0,0,1.5H45A2.09,2.09,0,0,0,45,35a16,16,0,0,0,3.13,9.5ZM53,19.25a.76.76,0,0,0-.75.75v1.62a15.12,15.12,0,0,0-2.1,1.63h-5.4V20a.75.75,0,0,0-1.5,0v4.75h5.48a13.7,13.7,0,0,0-1.27,1.75H39.75a1.25,1.25,0,0,1-1.25-1.25V11.75a1.25,1.25,0,0,1,1.25-1.25h17.5a1.25,1.25,0,0,1,1.25,1.25V19.2a15.41,15.41,0,0,0-4.75,1.55V20A.76.76,0,0,0,53,19.25ZM61,49.5A14.4,14.4,0,0,1,51.56,46q-.42-.36-.81-.75c-.24-.24-.48-.49-.7-.75A14.46,14.46,0,0,1,46.5,35a2.09,2.09,0,0,1,0-.25,12.32,12.32,0,0,1,.1-1.5A14.27,14.27,0,0,1,48.3,28a15,15,0,0,1,2.45-3.25,14.06,14.06,0,0,1,1.43-1.25,9.34,9.34,0,0,1,.82-.58,7.25,7.25,0,0,1,.75-.47,14.17,14.17,0,0,1,4.75-1.73,12.29,12.29,0,0,1,1.5-.18c.33,0,.66,0,1,0a13.76,13.76,0,0,1,2.5.22,12.54,12.54,0,0,1,1.5.34A14.5,14.5,0,0,1,61,49.5Zm20.94,8.44a1.54,1.54,0,0,1-2.12,0l-8.49-8.49a1.5,1.5,0,0,1-.44-1.06,1.5,1.5,0,0,1,1.5-1.5,1.5,1.5,0,0,1,1.06.44l8.49,8.49a1.5,1.5,0,0,1,0,2.12Z"/><path class="a" d="M28,34a.76.76,0,0,1-.75.75H5.75a.75.75,0,0,1,0-1.5h21.5A.76.76,0,0,1,28,34Z"/><path class="b" d="M82.38,56.88a1.5,1.5,0,0,1-.44,1.06,1.54,1.54,0,0,1-2.12,0l-8.49-8.49a1.5,1.5,0,0,1-.44-1.06,1.5,1.5,0,0,1,1.5-1.5,1.5,1.5,0,0,1,1.06.44l8.49,8.49A1.5,1.5,0,0,1,82.38,56.88Z"/><path class="b" d="M65,21.06a12.54,12.54,0,0,0-1.5-.34A13.76,13.76,0,0,0,61,20.5c-.34,0-.67,0-1,0a12.29,12.29,0,0,0-1.5.18,14.17,14.17,0,0,0-4.75,1.73,7.25,7.25,0,0,0-.75.47,9.34,9.34,0,0,0-.82.58,14.06,14.06,0,0,0-1.43,1.25A15,15,0,0,0,48.3,28a14.27,14.27,0,0,0-1.69,5.25,12.32,12.32,0,0,0-.1,1.5,2.09,2.09,0,0,0,0,.25,14.46,14.46,0,0,0,3.55,9.5c.22.26.46.51.7.75s.53.51.81.75A14.5,14.5,0,1,0,65,21.06ZM65,41.4c0,.12,0,.23,0,.34,0-.16,0-.33,0-.49Z"/><path class="b" d="M58.5,11.75V19.2a15.41,15.41,0,0,0-4.75,1.55V20a.76.76,0,0,0-.75-.75v-1.6l1.61,1a.79.79,0,0,0,.39.11.75.75,0,0,0,.64-.36.74.74,0,0,0-.25-1l-6.58-4L48.5,13l-.31.31-6.58,4a.75.75,0,0,0,.78,1.28l1.61-1v1.6a.76.76,0,0,0-.75.75v4.75h5.48a13.7,13.7,0,0,0-1.27,1.75H39.75a1.25,1.25,0,0,1-1.25-1.25V11.75a1.25,1.25,0,0,1,1.25-1.25h17.5A1.25,1.25,0,0,1,58.5,11.75Z"/><path class="b" d="M60.25,1.5H4.75A3.26,3.26,0,0,0,1.5,4.75v36.5A3.26,3.26,0,0,0,4.75,44.5H48.13A16,16,0,0,1,45,35a2.09,2.09,0,0,1,0-.25H37.75a.75.75,0,0,1,0-1.5H45.1A15.77,15.77,0,0,1,46.62,28H39.75A2.75,2.75,0,0,1,37,25.25V11.75A2.75,2.75,0,0,1,39.75,9h17.5A2.75,2.75,0,0,1,60,11.75V19c.33,0,.66,0,1,0a15.81,15.81,0,0,1,2.5.2V4.75A3.26,3.26,0,0,0,60.25,1.5Zm-33,33.25H5.75a.75.75,0,0,1,0-1.5h21.5a.75.75,0,0,1,0,1.5Zm.75-9.5A2.75,2.75,0,0,1,25.25,28H7.75A2.75,2.75,0,0,1,5,25.25V11.75A2.75,2.75,0,0,1,7.75,9h17.5A2.75,2.75,0,0,1,28,11.75ZM33.25,41.5a.75.75,0,0,1-1.5,0V4.5a.75.75,0,0,1,1.5,0Z"/><path class="c" d="M53,17.65v1.6a.76.76,0,0,0-.75.75v1.62a15.12,15.12,0,0,0-2.1,1.63h-5.4V20a.76.76,0,0,0-.75-.75v-1.6l4.5-2.77Z"/><path class="a" d="M25.25,9H7.75A2.75,2.75,0,0,0,5,11.75v13.5A2.75,2.75,0,0,0,7.75,28h17.5A2.75,2.75,0,0,0,28,25.25V11.75A2.75,2.75,0,0,0,25.25,9ZM26.5,25.25a1.25,1.25,0,0,1-1.25,1.25H7.75A1.25,1.25,0,0,1,6.5,25.25V11.75A1.25,1.25,0,0,1,7.75,10.5h17.5a1.25,1.25,0,0,1,1.25,1.25Z"/><path class="b" d="M25.25,10.5H7.75A1.25,1.25,0,0,0,6.5,11.75v13.5A1.25,1.25,0,0,0,7.75,26.5h17.5a1.25,1.25,0,0,0,1.25-1.25V11.75A1.25,1.25,0,0,0,25.25,10.5Zm-1.61,7.89a.75.75,0,0,1-.64.36.79.79,0,0,1-.39-.11l-1.61-1v1.6a.76.76,0,0,1,.75.75v4.75H11.25V20a.76.76,0,0,1,.75-.75v-1.6l-1.61,1a.75.75,0,0,1-.78-1.28l6.58-4L16.5,13l.31.31,6.58,4A.74.74,0,0,1,23.64,18.39Z"/><path class="c" d="M21,17.65v1.6a.76.76,0,0,0-.75.75v3.25h-7.5V20a.76.76,0,0,0-.75-.75v-1.6l4.5-2.77Z"/><path class="a" d="M21.75,20v4.75H11.25V20a.75.75,0,0,1,1.5,0v3.25h7.5V20a.75.75,0,0,1,1.5,0Z"/><path class="a" d="M23.64,18.39a.75.75,0,0,1-.64.36.79.79,0,0,1-.39-.11l-1.61-1-4.5-2.77L12,17.65l-1.61,1a.75.75,0,0,1-.78-1.28l6.58-4,.31-.19.31.19,6.58,4A.74.74,0,0,1,23.64,18.39Z"/><path class="a" d="M33.25,4.5v37a.75.75,0,0,1-1.5,0V4.5a.75.75,0,0,1,1.5,0Z"/><path class="a" d="M55.64,18.39a.75.75,0,0,1-.64.36.79.79,0,0,1-.39-.11l-1.61-1-4.5-2.77L44,17.65l-1.61,1a.75.75,0,0,1-.78-1.28l6.58-4,.31-.19.31.19,6.58,4A.74.74,0,0,1,55.64,18.39Z"/></svg>