<?xml version="1.0" encoding="UTF-8"?>
<svg width="87px" height="77px" viewBox="0 0 87 77" version="1.1" xmlns="http://www.w3.org/2000/svg" xmlns:xlink="http://www.w3.org/1999/xlink">
    <title>Map Views/Elements/Prospecting Line</title>
    <defs>
        <radialGradient cx="1.94824856%" cy="25.535591%" fx="1.94824856%" fy="25.535591%" r="132.907174%" gradientTransform="translate(0.019482,0.255356),scale(0.885057,1.000000),rotate(33.906939),translate(-0.019482,-0.255356)" id="radialGradient-1">
            <stop stop-color="#D0E7F8" offset="0%"></stop>
            <stop stop-color="#EEF7FD" offset="100%"></stop>
        </radialGradient>
    </defs>
    <g id="Tabs" stroke="none" stroke-width="1" fill="none" fill-rule="evenodd">
        <g id="Prop-Details---Map/Location" transform="translate(-352.000000, -2086.000000)">
            <g id="Map-Shortcuts" transform="translate(328.000000, 1813.000000)">
                <g id="Group" transform="translate(24.000000, 273.000000)">
                    <rect id="Rectangle" fill="url(#radialGradient-1)" x="0" y="0" width="87" height="77" rx="8"></rect>
                    <rect id="Rectangle" fill-opacity="0.5" fill="#FFFFFF" x="6" y="8" width="36" height="48"></rect>
                    <rect id="Rectangle-Copy-3" fill-opacity="0.5" fill="#FFFFFF" x="46" y="8" width="35" height="48"></rect>
                    <path d="M0,62 L0,70 C10.0192966,68.6666667 19.1859632,68 27.5,68 C39.9710552,68 52.5,73.5 62,72.5 C68.3333333,71.8333333 76.6666667,69.6666667 87,66 L87,58.5 C74.3333333,62.8333333 65.6666667,65 61,65 C54,65 36,61 27.5,61 C21.8333333,61 12.6666667,61.3333333 0,62 Z" id="Path-3" fill="#FFFFFF"></path>
                    <g transform="translate(15.998641, 26.000000)" id="Pin-/-Off-Close-Withdr_Exp_Cancel-Copy">
                        <path d="M16,0 L16,16 L0,16 L0,0 L16,0 Z M14.6666667,1.33333333 L1.33333333,1.33333333 L1.33333333,14.6666667 L14.6666667,14.6666667 L14.6666667,1.33333333 Z" id="Outline" fill="#FFFFFF"></path>
                        <polygon id="Color" fill="#8EA5C2" points="14.6666667 1.33333333 14.6666667 14.6666667 1.33333333 14.6666667 1.33333333 1.33333333"></polygon>
                    </g>
                    <g transform="translate(55.000000, 23.000000)" fill-rule="nonzero" id="Pin/subject-property">
                        <g id="subject-property">
                            <g id="Outline">
                                <path d="M15.84825,4.32846154 C15.0964528,3.02402529 14.0312263,1.93898901 12.75425,1.17692308 C11.4659426,0.397463794 9.99573163,-0.00926481198 8.5,-0.000154815982 C7.00433951,-0.00870147013 5.53427216,0.397987416 4.24575,1.17692308 C2.97000834,1.93914962 1.90619809,3.02423383 1.156,4.32846154 C0.389813485,5.63795072 -0.0101295808,7.13849126 -3.25043811e-16,8.66564103 C-0.0116825213,9.53273486 0.110236225,10.39628 0.36125,11.224359 C0.706166425,12.1833169 1.16432915,13.0953239 1.7255,13.94 L3.06425,15.9712821 L7.16125,21.9779487 L7.22075,22.0564103 C7.52913078,22.4558041 8.00350054,22.6820986 8.5,22.6666667 C9.03303993,22.6829942 9.53812017,22.4223394 9.843,21.9735897 L12.66075,17.854359 L13.44275,16.7035897 L14.892,14.5371795 L15.42325,13.7046154 C15.922072,12.9297458 16.3300562,12.0972443 16.63875,11.224359 C16.8921391,10.3968333 17.0141134,9.53289533 17,8.66564103 C17.0095483,7.13915448 16.6112178,5.63914925 15.84825,4.32846154 Z M8.07075,21.4069231 L8.0325,21.3546154 C8.04451097,21.3737809 8.05878589,21.39135 8.075,21.4069231 L8.07075,21.4069231 Z M15.4275,10.8189744 C15.2538744,11.3261805 15.0332839,11.8151652 14.76875,12.2792308 L13.96975,13.6 L8.7975,21.2282051 C8.73118658,21.3276383 8.61670408,21.3813151 8.5,21.3676923 C8.40206044,21.375681 8.30566428,21.3390042 8.2365,21.2674359 L5.46125,17.2223077 L4.641,16.0148718 L3.20875,13.8746154 L2.57125,12.8676923 C2.1635136,12.2259286 1.82843385,11.5385855 1.5725,10.8189744 C1.36385024,10.1216384 1.26345643,9.39497848 1.275,8.66564103 C1.26672186,7.37208785 1.60484198,6.10102762 2.2525,4.99102564 C2.89425791,3.87723632 3.80271038,2.94999139 4.89175,2.29717949 C7.12376497,0.972047716 9.87623503,0.972047716 12.10825,2.29717949 C13.1972896,2.94999139 14.1057421,3.87723632 14.7475,4.99102564 C15.395158,6.10102762 15.7332781,7.37208785 15.725,8.66564103 C15.7386552,9.3951119 15.6382144,10.122112 15.4275,10.8189744 L15.4275,10.8189744 Z" id="Shape" fill="#FFFFFF"></path>
                                <path d="M14.7475,4.99102564 C14.1057421,3.87723632 13.1972896,2.94999139 12.10825,2.29717949 C9.87623503,0.972047716 7.12376497,0.972047716 4.89175,2.29717949 C3.80271038,2.94999139 2.89425791,3.87723632 2.2525,4.99102564 C1.60484198,6.10102762 1.26672186,7.37208785 1.275,8.66564103 C1.26345643,9.39497848 1.36385024,10.1216384 1.5725,10.8189744 C1.82843385,11.5385855 2.1635136,12.2259286 2.57125,12.8676923 L3.20875,13.8746154 L4.641,16.0148718 L5.46125,17.2223077 L8.2365,21.2674359 C8.30566428,21.3390042 8.40206044,21.375681 8.5,21.3676923 C8.61670408,21.3813151 8.73118658,21.3276383 8.7975,21.2282051 L13.96975,13.6 L14.76875,12.2792308 C15.0332839,11.8151652 15.2538744,11.3261805 15.4275,10.8189744 C15.6382144,10.122112 15.7386552,9.3951119 15.725,8.66564103 C15.7332781,7.37208785 15.395158,6.10102762 14.7475,4.99102564 Z M13.0815,9.63769231 C13.0015445,9.72020494 12.8931673,9.76717233 12.77975,9.76846154 L12.04875,9.76846154 L12.04875,12.8676923 C12.049147,12.9834238 12.0044979,13.0945328 11.9247087,13.1763679 C11.8449195,13.2582029 11.7365883,13.3039969 11.62375,13.3035924 L5.406,13.3035924 C5.29316175,13.3039969 5.1848305,13.2582029 5.10504132,13.1763679 C5.02525213,13.0945328 4.98060298,12.9834238 4.981,12.8676923 L4.981,9.76846154 L4.25,9.76846154 C4.01555995,9.76776725 3.82567694,9.57301544 3.82499748,9.3325641 C3.82460491,9.21589208 3.87065632,9.10410918 3.9525,9.02307692 L8.21525,4.70333333 C8.38235874,4.53769828 8.64739126,4.53769828 8.8145,4.70333333 L9.44775,5.34846154 C9.51412581,5.18727922 9.66815476,5.08253267 9.83875,5.0825641 L11.41975,5.0825641 C11.6541901,5.0832584 11.8440731,5.2780102 11.84475,5.51846154 L11.84475,7.77205128 L13.07725,9.02307692 C13.1573981,9.10393597 13.2028885,9.21417692 13.2036965,9.32948037 C13.2044831,9.44478383 13.1605219,9.55567545 13.0815,9.63769231 Z" id="Shape" fill="#000000"></path>
                            </g>
                            <g id="Combined-Shape" transform="translate(3.825000, 4.358974)">
                                <path d="M9.25225,4.66410256 L8.01975,3.41307692 L8.01975,1.15948718 C8.01907306,0.919035846 7.82919005,0.724284037 7.59475,0.723589744 L6.01375,0.723589744 C5.84315476,0.723558314 5.68912581,0.828304864 5.62275,0.989487179 L4.9895,0.344358974 C4.82239126,0.178723924 4.55735874,0.178723924 4.39025,0.344358974 L0.1275,4.66410256 C0.0456563162,4.74513482 -0.000395088211,4.85691772 -2.52137705e-06,4.97358974 C0.000676935722,5.21404108 0.19055995,5.40879289 0.425,5.40948718 L1.156,5.40948718 L1.156,8.50871795 C1.15560298,8.62444949 1.20025213,8.73555846 1.28004132,8.81739352 C1.3598305,8.89922858 1.46816175,8.94502259 1.581,8.94461808 L7.79875,8.94461808 C7.91158825,8.94502259 8.0199195,8.89922858 8.09970868,8.81739352 C8.17949787,8.73555846 8.22414702,8.62444949 8.22375,8.50871795 L8.22375,5.40948718 L8.95475,5.40948718 C9.06816726,5.40819797 9.17654451,5.36123058 9.2565,5.27871795 C9.33552187,5.19670109 9.37948312,5.08580947 9.37869647,4.97050601 C9.3778885,4.85520256 9.33239814,4.74496161 9.25225,4.66410256 L9.25225,4.66410256 Z M7.58625,4.75564103 L7.58625,8.29076923 L1.7935,8.29076923 L1.7935,4.75564103 L0.9435,4.75564103 L4.68775,0.963333333 L5.8395,2.12717949 L6.154,1.3774359 L7.38225,1.3774359 L7.38225,3.68769231 L8.43625,4.75564103 L7.58625,4.75564103 Z" id="Shape" fill="#FFFFFF"></path>
                                <path d="M7.38225,3.68769231 L7.38225,1.3774359 L6.154,1.3774359 L5.8395,2.12717949 L4.68775,0.963333333 L0.9435,4.75564103 L1.7935,4.75564103 L1.7935,8.29076923 L7.58625,8.29076923 L7.58625,4.75564103 L8.43625,4.75564103 L7.38225,3.68769231 Z M5.84376542,5.88461538 C5.8445876,5.97158129 5.81127414,6.05523552 5.75131439,6.1167327 C5.69135464,6.17822989 5.60979176,6.21239753 5.525,6.21155428 L3.825,6.21155428 C3.74042766,6.21165435 3.65928668,6.17724798 3.59948495,6.11591287 C3.53968322,6.05457776 3.50613701,5.97135625 3.50624972,5.88461538 L3.50624972,4.14102564 C3.50752312,3.96101465 3.64948929,3.81540833 3.825,3.81410227 L5.525,3.81410227 C5.60957234,3.81398668 5.69071332,3.84839304 5.75051505,3.90972815 C5.81031678,3.97106326 5.84386299,4.05428478 5.84376542,4.14102564 L5.84376542,5.88461538 Z" id="Shape" fill="#000000"></path>
                                <path d="M5.525,3.81410227 L3.825,3.81410227 C3.64948929,3.81540833 3.50752312,3.96101465 3.50624972,4.14102564 L3.50624972,5.88461538 C3.50613701,5.97135625 3.53968322,6.05457776 3.59948495,6.11591287 C3.65928668,6.17724798 3.74042766,6.21165435 3.825,6.21155428 L5.525,6.21155428 C5.60979176,6.21239753 5.69135464,6.17822989 5.75131439,6.1167327 C5.81127414,6.05523552 5.8445876,5.97158129 5.84376542,5.88461538 L5.84376542,4.14102564 C5.84386299,4.05428478 5.81031678,3.97106326 5.75051505,3.90972815 C5.69071332,3.84839304 5.60957234,3.81398668 5.525,3.81410227 Z M5.20625,5.55769231 L4.14375,5.55769231 L4.14375,4.46794872 L5.20625,4.46794872 L5.20625,5.55769231 Z" id="Shape" fill="#FFFFFF"></path>
                                <rect id="Rectangle" fill="#000000" x="4.14375" y="4.46794872" width="1.0625" height="1.08974359"></rect>
                            </g>
                        </g>
                    </g>
                </g>
            </g>
        </g>
    </g>
</svg>