<?xml version="1.0" encoding="UTF-8"?>
<svg width="87px" height="77px" viewBox="0 0 87 77" version="1.1" xmlns="http://www.w3.org/2000/svg" xmlns:xlink="http://www.w3.org/1999/xlink">
    <title>thumb-market-activity</title>
    <defs>
        <linearGradient x1="1.70372368e-06%" y1="50.0063476%" x2="100%" y2="50.0063476%" id="linearGradient-1">
            <stop stop-color="#D0E7F8" offset="0%"></stop>
            <stop stop-color="#E9F4FC" offset="84%"></stop>
            <stop stop-color="#EEF7FD" offset="100%"></stop>
        </linearGradient>
        <radialGradient cx="49.0142251%" cy="28.9023968%" fx="49.0142251%" fy="28.9023968%" r="105.301412%" gradientTransform="translate(0.490142,0.289024),scale(0.552800,1.000000),translate(-0.490142,-0.289024)" id="radialGradient-2">
            <stop stop-color="#BEF4D1" offset="3%"></stop>
            <stop stop-color="#D6FFE5" offset="100%"></stop>
        </radialGradient>
        <radialGradient cx="-154.955527%" cy="-109.600515%" fx="-154.955527%" fy="-109.600515%" r="387.371134%" gradientTransform="translate(-1.549555,-1.096005),scale(0.986023,1.000000),translate(1.549555,1.096005)" id="radialGradient-3">
            <stop stop-color="#D0E7F8" offset="10%"></stop>
            <stop stop-color="#EEF7FD" offset="92%"></stop>
        </radialGradient>
    </defs>
    <g id="Symbols" stroke="none" stroke-width="1" fill="none" fill-rule="evenodd">
        <g id="thumb-market-activity" transform="translate(-0.000405, -0.000000)">
            <path d="M65.4504084,38.2500079 C58.4504084,43.9600079 58.0804084,43.9600079 57.4504084,43.9600079 C52.0004084,44 50.0004084,37.6400079 48.2804084,32.0700079 C47.9604084,31.0700079 47.6504084,30.0700079 47.2804084,29.0700079 C46.1404084,25.8200079 40.2804084,22.1300079 35.1404084,18.8700079 C32.1871786,17.1126993 29.3602995,15.1512596 26.6804084,13 C22.7604084,9.61000789 17.3804054,6.16 6.50040545,9.09494702e-13 L3.50040545,9.09494702e-13 C2.50040545,9.09494702e-13 -0.00126083588,2.25255841 4.76778951e-07,5 L4.76778951e-07,37.5200079 L19.3304084,37.5200079 C20.9821547,31.4487922 26.4590046,27.2085186 32.7504084,27.1300079 C40.6337105,27.2831738 46.9009784,33.7966558 46.7504084,41.6800079 C46.8953857,49.559487 40.6297321,56.0668158 32.7504084,56.2200079 C26.4590046,56.1414971 20.9821547,51.9012236 19.3304084,45.8300079 L4.76778951e-07,45.8300079 L4.76778951e-07,69 C4.76778951e-07,73.4182859 3.58213041,77 8.00040841,77 L79.0004084,77 C83.4186864,77 87.0000005,73.4182859 87.0000005,69 L87.0000005,38.2500079 L65.4504084,38.2500079 Z M76.2604084,68.7300079 L61.7804084,58.5800079 L69.8504084,46.1500079 L84.3404084,56.3000079 L76.2604084,68.7300079 Z" id="Shape" fill="url(#linearGradient-1)"></path>
            <path d="M87.0004054,5 L87.0004054,35.7500079 L64.5504084,35.7500079 L64.2104084,36.0300079 C62.4804084,37.4400079 61.2104084,38.5 60.2104084,39.2800079 C58.3604084,40.7300079 57.6004084,41.2800079 57.2904084,41.4600079 L57.2204084,41.4600079 C56.5560925,41.4000648 55.920335,41.1616557 55.3804084,40.7700079 C54.0339824,39.6147144 53.0279246,38.1142708 52.4704084,36.4300079 C52.4355079,36.3740164 52.4085821,36.3134335 52.3904084,36.2500079 C51.7704084,34.7300079 51.2404084,33.0200079 50.7104084,31.3300079 C50.3804084,30.3300079 50.0604084,29.2500079 49.7104084,28.3300079 C48.2804084,24.2600079 42.3204084,20.4900079 36.5504084,16.8400079 L35.2404084,16 C32.8229081,14.5438573 30.5105628,12.9198692 28.3204084,11.1400079 L27.5704084,10.5100079 L27.5204084,10.5100079 C24.8870751,8.35000789 19.7137408,4.84667193 12.0004054,0 L76.0004054,0 C79.3337388,0 81.3337388,0 82.0004054,0 C83.0004054,0 85.0004054,1.5 85.5004054,2 C86.0004054,2.5 86.9818183,4.26018789 87.0004054,5 Z" id="Path" fill="url(#radialGradient-2)"></path>
            <path d="M87.0004054,35.7500079 L87.0004054,38.2500079 L65.4504084,38.2500079 C58.4504084,43.9603814 58.0804084,43.9603814 57.4504084,43.9603814 C52.0004054,44 50.0004054,37.6400079 48.2804084,32.0700079 C47.9604084,31.0700079 47.6504084,30.0700079 47.2804084,29.0700079 C46.1404084,25.8200079 40.2804084,22.1300079 35.1404084,18.8700079 C32.1871786,17.1126993 29.3602995,15.1512596 26.6804084,13 C24.0670751,10.7400053 17.3404074,6.40667193 6.50040545,1.36424205e-12 C8.00040545,1.36424205e-12 9.00040545,1.36424205e-12 10.0004054,1.36424205e-12 L12.0004054,1.36424205e-12 C21.3604054,5.37 23.5704084,7.21000789 27.5204084,10.4900079 L27.5704084,10.4900079 L28.3204084,11.1200079 C30.5099315,12.906743 32.8222923,14.5374252 35.2404084,16 L36.5204084,16.8100079 C42.2904084,20.4600079 48.2504084,24.2300079 49.6804084,28.3000079 C50.0204084,29.3000079 50.3404084,30.3000079 50.6804084,31.3000079 C51.2104084,32.9900079 51.7404084,34.7000079 52.3604084,36.2200079 C52.3785821,36.2834335 52.4055079,36.3440164 52.4404084,36.4000079 C52.9979246,38.0842708 54.0039824,39.5847144 55.3504084,40.7400079 C55.890335,41.1316557 56.5260925,41.3700648 57.1904084,41.4300079 L57.2604084,41.4300079 C57.5704084,41.2400079 58.3304084,40.7000079 60.1804084,39.2500079 C61.1804084,38.4700079 62.4904084,37.4100079 64.1804084,36 L64.5204084,35.7200079 L87.0004054,35.7500079 Z" id="Path" fill="#FFFFFF" fill-rule="nonzero"></path>
            <path d="M69.8504084,46.1500079 L61.7804084,58.5800079 L76.2604084,68.7300079 L84.3404084,56.3000079 L69.8504084,46.1500079 Z M75.5804084,65.2000079 L65.1904084,57.9200079 L70.5404084,49.6800079 L80.9304084,57.0000079 L75.5804084,65.2000079 Z" id="Shape" fill="#FFFFFF" fill-rule="nonzero"></path>
            <polygon id="Path" fill="url(#radialGradient-3)" fill-rule="nonzero" points="80.9304084 56.9600079 75.5804084 65.2000079 65.1904084 57.9200079 70.5404084 49.6800079"></polygon>
            <path d="M32.7504084,27.1300079 C26.4590046,27.2085186 20.9821547,31.4487922 19.3304084,37.5200079 L0.000408407723,37.5200079 L0.000408407723,45.8300079 L19.3304084,45.8300079 C20.9821547,51.9012236 26.4590046,56.1414971 32.7504084,56.2200079 C40.6297321,56.0668158 46.8953857,49.559487 46.7504084,41.6800079 C46.9009784,33.7966558 40.6337105,27.2831738 32.7504084,27.1300079 L32.7504084,27.1300079 Z M32.7504084,53.3100079 C28.0380953,53.2631601 23.8582216,50.2741109 22.2904084,45.8300079 C21.3006849,43.1484152 21.3006849,40.2016006 22.2904084,37.5200079 C23.8447775,33.0601336 28.0277243,30.0528908 32.7504084,30.0000079 C39.0434577,30.1845199 44.0492706,35.3392542 44.0492706,41.6350079 C44.0492706,47.9307615 39.0434577,53.0854959 32.7504084,53.2700079 L32.7504084,53.3100079 Z" id="Shape" fill="#FFFFFF"></path>
            <path d="M32.7504084,30.0000079 C28.0380953,30.0468557 23.8582216,33.0359049 22.2904084,37.4800079 C21.3006849,40.1616006 21.3006849,43.1084152 22.2904084,45.7900079 C23.8582216,50.2341109 28.0380953,53.2231601 32.7504084,53.2700079 C39.0434577,53.0854959 44.0492706,47.9307615 44.0492706,41.6350079 C44.0492706,35.3392542 39.0434577,30.1845199 32.7504084,30.0000079 L32.7504084,30.0000079 Z M35.4904084,46.8100079 C34.881161,47.4032649 34.0791978,47.7581159 33.2304084,47.8100079 L33.2304084,49.3300079 L32.0004084,49.3300079 L32.0004084,47.8300079 C31.0965929,47.7690474 30.2479836,47.3732674 29.6204084,46.7200079 C29.3899184,46.457077 29.2071676,46.1558766 29.0804084,45.8300079 C28.8791789,45.3210162 28.7806206,44.7772465 28.7904084,44.2300079 L30.6904084,44.2300079 C30.6649803,44.6779341 30.7728547,45.1233507 31.0004084,45.5100079 C31.0477911,45.6017376 31.1084437,45.6859773 31.1804084,45.7600079 C31.5454659,46.136361 32.057177,46.3337353 32.5804084,46.3000079 C33.0678028,46.3262097 33.5479551,46.1732724 33.9304084,45.8700079 C34.244341,45.5757038 34.4157079,45.160048 34.4004084,44.7300079 C34.415024,44.3216146 34.2634884,43.9247356 33.9804084,43.6300079 C33.5747799,43.2676569 33.092909,43.00109 32.5704084,42.8500079 C32.029762,42.6777826 31.5045741,42.4603481 31.0004084,42.2000079 L31.0004084,42.2000079 C29.8940863,41.676875 29.197398,40.553563 29.2204084,39.3300079 C29.1992777,38.6932626 29.3814053,38.0663232 29.7404084,37.5400079 C29.8217254,37.4200425 29.9119818,37.3063863 30.0104084,37.2000079 C30.5764789,36.6148282 31.3383654,36.2588065 32.1504084,36.2000079 L32.1504084,34.4800079 L33.4004084,34.4800079 L33.4004084,36.2000079 C34.2248182,36.2909461 34.9797635,36.7043685 35.5004084,37.3500079 C36.0172155,38.0745712 36.2776198,38.9507965 36.2404084,39.8400079 L34.3504084,39.8400079 C34.3788184,39.2889414 34.2241134,38.7439579 33.9104084,38.2900079 C33.6272601,37.9168386 33.1782903,37.7073194 32.7104084,37.7300079 C32.2827133,37.7022957 31.861621,37.8462589 31.5404084,38.1300079 C31.2433004,38.4443274 31.0910367,38.8684905 31.1204084,39.3000079 C31.1038426,39.705757 31.255862,40.1002837 31.5404084,40.3900079 C31.953498,40.7393893 32.4331711,41.0013385 32.9504084,41.1600079 C33.4889505,41.3498064 34.0135631,41.5770271 34.5204084,41.8400079 C34.8889298,42.026916 35.2262649,42.2697973 35.5204084,42.5600079 C35.7819562,42.8238266 35.9892036,43.1363965 36.1304084,43.4800079 C36.2779915,43.8729225 36.3492654,44.290384 36.3404084,44.7100079 C36.3621671,45.5096575 36.0549113,46.2832191 35.4904084,46.8500079 L35.4904084,46.8100079 Z" id="Shape" fill="#0070C1"></path>
            <path d="M36.3004084,44.7100079 C36.3327805,45.5038307 36.0402941,46.2765724 35.4904084,46.8500079 C34.881161,47.4432649 34.0791978,47.7981159 33.2304084,47.8500079 L33.2304084,49.3700079 L32.0004084,49.3700079 L32.0004084,47.8300079 C31.0965929,47.7690474 30.2479836,47.3732674 29.6204084,46.7200079 C29.3899184,46.457077 29.2071676,46.1558766 29.0804084,45.8300079 C28.8791789,45.3210162 28.7806206,44.7772465 28.7904084,44.2300079 L30.6904084,44.2300079 C30.6649803,44.6779341 30.7728547,45.1233507 31.0004084,45.5100079 C31.0477911,45.6017376 31.1084437,45.6859773 31.1804084,45.7600079 C31.5454659,46.136361 32.057177,46.3337353 32.5804084,46.3000079 C33.0678028,46.3262097 33.5479551,46.1732724 33.9304084,45.8700079 C34.244341,45.5757038 34.4157079,45.160048 34.4004084,44.7300079 C34.415024,44.3216146 34.2634884,43.9247356 33.9804084,43.6300079 C33.5747799,43.2676569 33.092909,43.00109 32.5704084,42.8500079 C32.029762,42.6777826 31.5045741,42.4603481 31.0004084,42.2000079 L31.0004084,42.2000079 C29.8940863,41.676875 29.197398,40.553563 29.2204084,39.3300079 C29.1992777,38.6932626 29.3814053,38.0663232 29.7404084,37.5400079 C29.8217254,37.4200425 29.9119818,37.3063863 30.0104084,37.2000079 C30.5764789,36.6148282 31.3383654,36.2588065 32.1504084,36.2000079 L32.1504084,34.4800079 L33.4004084,34.4800079 L33.4004084,36.2000079 C34.2248182,36.2909461 34.9797635,36.7043685 35.5004084,37.3500079 C36.0172155,38.0745712 36.2776198,38.9507965 36.2404084,39.8400079 L34.3504084,39.8400079 C34.3788184,39.2889414 34.2241134,38.7439579 33.9104084,38.2900079 C33.6272601,37.9168386 33.1782903,37.7073194 32.7104084,37.7300079 C32.2827133,37.7022957 31.861621,37.8462589 31.5404084,38.1300079 C31.2433004,38.4443274 31.0910367,38.8684905 31.1204084,39.3000079 C31.1038426,39.705757 31.255862,40.1002837 31.5404084,40.3900079 C31.953498,40.7393893 32.4331711,41.0013385 32.9504084,41.1600079 C33.4889505,41.3498064 34.0135631,41.5770271 34.5204084,41.8400079 C34.8889298,42.026916 35.2262649,42.2697973 35.5204084,42.5600079 C35.7819562,42.8238266 35.9892036,43.1363965 36.1304084,43.4800079 C36.2643949,43.8755572 36.3220826,44.2929445 36.3004084,44.7100079 Z" id="Path" fill="#FFFFFF" fill-rule="nonzero"></path>
        </g>
    </g>
</svg>